<svg width="56" height="56" viewBox="0 0 56 56" fill="none" xmlns="http://www.w3.org/2000/svg">
<path d="M4.66602 14C4.66602 11.5247 5.64935 9.1507 7.39969 7.40036C9.15003 5.65002 11.524 4.66669 13.9993 4.66669H41.9994C44.4747 4.66669 46.8487 5.65002 48.599 7.40036C50.3494 9.1507 51.3327 11.5247 51.3327 14V42C51.3327 44.4754 50.3494 46.8493 48.599 48.5997C46.8487 50.35 44.4747 51.3334 41.9994 51.3334H13.9993C11.524 51.3334 9.15003 50.35 7.39969 48.5997C5.64935 46.8493 4.66602 44.4754 4.66602 42V14Z" stroke="#5C95FF" stroke-width="2" stroke-linecap="round" stroke-linejoin="round"/>
<path d="M19.8333 25.6667C23.055 25.6667 25.6667 23.055 25.6667 19.8333C25.6667 16.6117 23.055 14 19.8333 14C16.6117 14 14 16.6117 14 19.8333C14 23.055 16.6117 25.6667 19.8333 25.6667Z" stroke="#5C95FF" stroke-width="2" stroke-linecap="round" stroke-linejoin="round"/>
<path d="M33.894 29.449L14 51.3334H42.3103C44.7034 51.3334 46.9984 50.3827 48.6906 48.6906C50.3827 46.9985 51.3333 44.7034 51.3333 42.3104V42C51.3333 40.9127 50.925 40.495 50.19 39.69L40.7867 29.435C40.3484 28.957 39.8153 28.5755 39.2214 28.315C38.6275 28.0544 37.9858 27.9206 37.3372 27.9219C36.6887 27.9232 36.0476 28.0597 35.4547 28.3226C34.8618 28.5856 34.3303 28.9692 33.894 29.449V29.449Z" stroke="#5C95FF" stroke-width="2" stroke-linecap="round" stroke-linejoin="round"/>
</svg>
