<svg width="30" height="31" viewBox="0 0 30 31" fill="none" xmlns="http://www.w3.org/2000/svg">
<path d="M29.5512 18.6307C27.5476 26.6674 19.4077 31.5584 11.3701 29.5543C3.33579 27.5507 -1.55519 19.4103 0.449279 11.3742C2.45198 3.33666 10.5919 -1.55468 18.627 0.448902C26.6641 2.45249 31.5548 10.5938 29.551 18.6308L29.5511 18.6307H29.5512Z" fill="#F3BA2F"/>
<path fill-rule="evenodd" clip-rule="evenodd" d="M15.0017 9.521L11.1171 13.4056L11.1171 13.4054L8.85697 11.1452L15.0017 5.00049L21.1484 11.147L18.8881 13.4073L15.0017 9.521ZM7.26088 12.741L5.00055 15.0016L7.26072 17.2615L9.52106 15.0011L7.26088 12.741ZM11.1171 16.5979L15.0017 20.4822L18.8881 16.596L21.1495 18.8551L21.1484 18.8563L15.0017 25.0027L8.857 18.8581L8.8538 18.8549L11.1171 16.5979ZM22.7426 12.7422L20.4823 15.0026L22.7426 17.2627L25.0028 15.0024L22.7426 12.7422Z" fill="white"/>
<path d="M17.2941 15.0006H17.2951L15.0017 12.707L13.3065 14.4017L13.1118 14.5965L12.7101 14.9983L12.7069 15.0014L12.7101 15.0047L15.0017 17.2965L17.2952 15.003L17.2963 15.0017L17.2941 15.0006Z" fill="white"/>
</svg>
