<?xml version="1.0" standalone="no"?>
<!DOCTYPE svg PUBLIC "-//W3C//DTD SVG 20010904//EN"
 "http://www.w3.org/TR/2001/REC-SVG-20010904/DTD/svg10.dtd">
<svg version="1.0" xmlns="http://www.w3.org/2000/svg"
 width="2200.000000pt" height="3441.000000pt" viewBox="0 0 2200.000000 3441.000000"
 preserveAspectRatio="xMidYMid meet">

<g transform="translate(0.000000,3441.000000) scale(0.100000,-0.100000)"
fill="#000000" stroke="none">
<path d="M2170 34400 c0 -5 -5 -10 -11 -10 -7 0 -39 -17 -73 -38 -71 -44 -306
-165 -306 -157 0 12 -489 -247 -530 -281 -8 -6 -33 -22 -55 -34 -89 -50 -360
-274 -350 -290 2 -4 -7 -18 -20 -30 -14 -13 -25 -20 -25 -15 0 19 -85 -75
-149 -165 -125 -173 -531 -807 -531 -827 0 -5 -67 -106 -94 -142 l-26 -35 0
-2038 0 -2038 22 -10 c13 -5 39 -20 59 -32 114 -72 190 -114 331 -182 101 -49
188 -100 242 -141 47 -36 90 -65 96 -65 5 0 10 -4 10 -8 0 -8 112 -94 151
-117 10 -5 53 -31 96 -56 99 -59 333 -181 333 -174 0 5 99 -45 139 -70 38 -24
124 -85 231 -164 132 -98 121 -91 260 -170 58 -33 122 -70 143 -83 21 -13 42
-22 45 -22 4 1 40 -16 80 -38 39 -22 72 -37 72 -34 0 9 74 -30 274 -142 197
-111 202 -113 359 -186 65 -31 163 -86 218 -123 56 -37 111 -75 123 -83 12 -8
42 -31 67 -51 40 -32 77 -58 118 -84 9 -5 34 -22 56 -36 22 -14 77 -45 122
-69 46 -23 80 -46 77 -51 -7 -11 42 -32 114 -49 40 -9 63 -9 98 -1 33 8 61 9
107 1 53 -10 70 -9 116 7 29 10 53 23 54 28 0 6 21 22 46 37 83 47 172 151
224 260 12 26 26 46 32 45 25 -6 62 214 47 281 -7 28 -7 68 -1 112 7 46 7 76
0 88 -7 13 -6 23 2 31 9 9 13 217 15 868 3 830 3 857 23 899 11 24 23 44 27
45 4 0 18 3 32 5 31 6 111 -30 254 -113 61 -36 174 -97 251 -135 296 -147 340
-171 465 -248 19 -12 128 -74 194 -111 28 -16 112 -59 186 -97 120 -60 220
-121 314 -189 76 -56 97 -71 162 -114 79 -53 262 -160 347 -204 32 -17 93 -49
135 -72 42 -23 86 -46 98 -51 11 -6 60 -38 110 -72 49 -33 100 -69 114 -78 14
-9 45 -32 69 -50 58 -44 292 -183 414 -246 201 -105 299 -157 447 -240 36 -20
106 -57 157 -82 51 -26 91 -52 90 -58 -1 -6 9 -11 23 -12 83 -2 236 -87 432
-241 114 -89 277 -192 426 -268 50 -26 90 -53 89 -59 -1 -6 12 -12 28 -12 61
-3 169 -55 420 -204 72 -42 207 -120 300 -172 94 -52 252 -149 350 -214 189
-126 232 -152 305 -192 25 -14 56 -32 70 -41 14 -10 48 -28 75 -40 28 -13 80
-39 118 -58 37 -19 67 -32 67 -29 0 19 166 -91 358 -236 58 -43 146 -103 196
-132 105 -62 326 -178 326 -171 0 8 257 -128 389 -207 75 -45 197 -112 271
-149 74 -38 167 -86 206 -108 75 -42 89 -51 250 -168 126 -91 228 -150 489
-283 116 -59 226 -117 245 -128 19 -11 53 -30 75 -42 22 -12 59 -35 83 -51 24
-16 45 -29 48 -29 3 0 56 -29 118 -65 62 -36 118 -65 123 -65 9 0 228 -109
268 -133 10 -7 47 -33 82 -59 34 -27 67 -48 73 -48 5 0 10 -4 10 -8 0 -9 163
-132 176 -132 4 0 15 -6 23 -14 27 -23 343 -195 371 -201 40 -9 428 -222 578
-317 15 -10 41 -25 57 -34 17 -9 47 -32 68 -52 29 -29 37 -44 37 -72 0 -20 -6
-45 -14 -55 -8 -11 -11 -26 -8 -34 3 -8 1 -12 -5 -8 -5 3 -38 -14 -71 -38 -34
-25 -65 -45 -69 -45 -3 0 -14 -6 -22 -14 -9 -8 -72 -43 -141 -79 -171 -88
-283 -147 -295 -157 -14 -11 -278 -153 -365 -196 -85 -43 -282 -162 -429 -260
-258 -171 -308 -202 -402 -250 -85 -43 -372 -205 -459 -259 -66 -41 -296 -155
-317 -157 -14 -2 -263 -134 -333 -177 -8 -5 -53 -33 -100 -62 -98 -60 -147
-91 -320 -203 -152 -98 -135 -88 -300 -181 -74 -42 -142 -80 -150 -85 -89 -53
-266 -163 -400 -250 -91 -58 -172 -109 -180 -113 -24 -12 -57 -32 -71 -44 -8
-5 -48 -28 -89 -50 -41 -22 -129 -72 -195 -110 -66 -37 -196 -106 -290 -152
-184 -90 -479 -237 -535 -268 -66 -35 -224 -140 -296 -196 -131 -101 -222
-155 -469 -278 -77 -38 -169 -85 -205 -105 -129 -71 -206 -112 -275 -149 -193
-102 -333 -184 -425 -247 -72 -49 -330 -220 -355 -235 -11 -6 -126 -64 -255
-129 -277 -140 -404 -215 -541 -321 -56 -43 -127 -95 -158 -117 -64 -44 -304
-170 -341 -179 -22 -5 -129 -65 -420 -234 -47 -27 -123 -70 -170 -95 -104 -55
-210 -115 -230 -128 -8 -6 -24 -15 -35 -20 -20 -11 -79 -48 -252 -158 -54 -34
-107 -68 -117 -75 -11 -6 -47 -30 -80 -53 -34 -22 -140 -84 -236 -138 -96 -53
-182 -101 -190 -107 -8 -5 -28 -16 -45 -25 -16 -8 -57 -31 -90 -50 -58 -33
-262 -135 -472 -235 -111 -54 -187 -75 -227 -65 -28 7 -66 75 -66 120 0 13 -6
27 -12 29 -10 4 -10 6 -1 6 10 1 13 312 13 1512 l0 1511 22 44 c12 24 24 44
27 45 63 9 132 -10 256 -71 44 -21 116 -55 159 -74 65 -30 227 -115 355 -186
14 -8 110 -61 211 -118 223 -124 199 -110 340 -203 139 -91 343 -210 367 -213
10 -2 18 -8 18 -14 0 -21 17 -27 73 -27 44 0 57 -4 57 -15 0 -29 56 -24 133
13 16 7 28 7 45 -1 67 -33 140 -41 123 -13 -9 13 20 21 32 9 13 -13 43 -3 40
14 -2 7 2 13 7 13 36 3 207 105 380 226 33 23 155 90 270 149 116 59 287 153
380 209 94 57 193 114 220 127 28 13 61 31 75 38 14 8 94 48 178 90 84 42 171
88 192 101 22 14 42 25 44 25 8 0 140 92 224 156 45 35 85 64 88 64 2 0 33 18
67 40 34 23 73 43 87 47 14 3 40 14 58 25 17 11 32 17 32 14 0 -10 260 131
355 193 54 35 208 150 220 165 12 14 105 80 125 89 8 4 33 18 55 32 22 14 47
28 55 31 8 3 43 20 78 37 34 17 69 32 77 33 19 3 208 112 298 172 61 41 227
203 227 223 0 4 14 30 31 57 17 27 32 58 34 68 2 11 4 19 5 19 1 0 4 13 6 29
3 16 10 38 15 48 7 13 6 29 -3 53 -9 27 -9 45 -1 76 10 39 9 48 -15 119 -3 8
-6 17 -7 20 -3 10 -26 56 -40 80 -30 54 -126 147 -265 259 -163 132 -265 209
-295 222 -11 5 -27 13 -35 19 -61 40 -214 123 -366 197 -175 87 -200 101 -334
188 -83 54 -306 175 -330 180 -10 2 -36 12 -57 23 -21 11 -76 39 -123 63 -47
23 -128 71 -180 104 -165 107 -553 340 -680 407 -19 10 -44 24 -55 31 -19 12
-234 150 -330 212 -56 36 -281 172 -323 195 -31 17 -189 106 -212 120 -71 41
-258 153 -270 160 -73 46 -330 183 -330 176 0 -8 -233 113 -301 157 -36 23
-88 61 -116 85 -28 23 -56 42 -62 42 -6 0 -11 4 -11 8 0 25 -234 169 -415 256
-212 101 -304 148 -410 207 -60 35 -173 95 -250 134 -339 175 -372 194 -499
292 -137 106 -304 206 -576 346 -102 52 -257 136 -346 188 -89 52 -210 118
-270 148 -60 29 -149 74 -199 98 -78 39 -242 139 -453 275 -97 63 -239 147
-402 238 -85 47 -202 117 -260 155 -158 102 -319 204 -470 296 -23 14 -136 76
-230 127 -47 25 -146 82 -220 126 -139 82 -234 133 -285 152 -72 27 -124 45
-146 50 -13 3 -31 7 -39 9 -8 2 -21 4 -28 4 -6 1 -11 6 -10 13 5 20 -106 31
-195 19 -91 -12 -98 -16 -90 -39 3 -9 3 -14 -1 -10 -8 6 -92 -18 -111 -32 -5
-4 -25 -11 -42 -15 l-33 -7 0 -9477 0 -9478 25 -11 c14 -7 30 -12 36 -12 5 0
26 -7 47 -17 20 -9 40 -17 45 -18 4 -2 9 -4 12 -5 3 -1 9 -3 14 -4 5 0 13 -4
17 -9 4 -4 16 -7 26 -7 10 0 17 -6 16 -12 -4 -19 94 -27 187 -17 104 12 170
31 170 49 0 8 5 15 10 16 41 3 310 136 435 214 8 5 74 42 145 81 153 85 306
172 355 204 19 12 76 48 125 80 50 32 122 78 160 103 39 25 82 53 97 63 15 11
30 19 34 19 4 0 15 6 23 14 9 8 93 57 186 109 239 134 220 122 560 337 116 73
280 166 365 208 129 63 321 164 392 207 114 69 225 129 443 239 72 37 159 84
195 106 36 21 81 48 101 59 19 11 73 48 120 83 179 134 254 182 414 263 206
105 339 176 351 186 6 5 161 84 345 177 184 93 357 185 385 205 28 20 55 37
58 37 4 0 57 39 118 86 61 47 142 107 182 132 68 45 256 145 256 138 0 -9 253
126 365 194 66 40 201 118 300 173 99 55 197 110 217 121 47 27 225 135 258
157 165 111 343 221 465 289 83 46 162 91 177 99 39 23 320 196 398 246 115
73 125 80 145 91 44 25 251 128 260 130 6 1 39 18 75 38 36 20 83 46 105 57
22 11 83 46 135 79 136 85 329 192 445 246 119 57 331 181 400 236 77 60 185
138 192 138 4 0 16 9 27 19 12 11 117 68 234 128 238 121 302 154 448 236 55
31 184 97 286 147 102 49 224 115 273 145 48 30 89 55 91 55 3 0 57 40 122 88
213 161 313 222 469 285 102 41 321 174 463 280 217 163 292 208 490 296 41
18 131 65 200 104 69 39 229 123 357 188 127 65 265 137 305 160 40 24 85 50
101 59 15 8 88 60 163 115 75 55 144 105 155 111 10 6 27 18 36 26 24 20 173
100 173 93 0 -3 29 10 63 30 35 19 69 35 76 35 6 0 54 25 106 55 53 30 98 55
101 55 3 0 17 8 32 19 116 80 464 271 494 271 16 0 264 138 332 185 34 23 114
83 178 133 65 51 120 92 124 92 3 0 19 9 35 21 16 11 116 64 221 117 106 54
229 119 273 145 44 27 89 54 100 60 11 7 38 26 60 43 114 88 229 163 305 200
88 43 131 62 140 61 12 -1 236 122 374 205 82 50 244 138 360 197 116 59 227
117 246 129 19 12 52 32 74 44 21 13 47 28 56 33 10 6 81 58 159 115 78 58
150 110 159 115 9 6 30 19 47 30 16 11 115 63 220 116 104 53 219 113 255 133
90 53 370 197 370 191 0 -7 194 95 300 157 94 56 250 168 250 180 0 4 6 8 13
8 7 0 26 12 43 28 51 47 339 232 361 232 3 0 49 29 102 65 107 72 201 150 201
169 0 6 13 20 30 29 16 10 42 34 57 54 31 41 76 93 141 165 24 26 41 52 37 58
-3 6 -3 9 2 8 21 -6 118 109 258 306 50 70 107 150 128 179 21 29 45 63 55 77
9 14 35 50 57 80 39 53 116 177 142 230 17 33 33 59 61 93 l22 29 0 1308 0
1308 -35 53 c-19 30 -35 57 -35 61 0 22 -152 249 -235 352 -72 88 -148 191
-257 351 -53 77 -119 169 -148 205 -73 92 -210 240 -220 237 -4 -1 -9 3 -10 8
-3 24 -131 133 -200 172 -19 11 -128 76 -241 145 -113 69 -280 167 -370 218
-90 51 -227 135 -304 185 -206 135 -339 218 -475 297 -35 20 -269 139 -320
162 -19 8 -57 29 -85 46 -27 16 -57 33 -65 36 -16 7 -39 24 -179 127 -138 101
-185 132 -283 188 -51 29 -113 65 -139 79 -25 15 -56 31 -70 35 -40 13 -304
152 -379 200 -39 25 -72 45 -74 45 -2 0 -48 25 -102 56 -55 31 -142 78 -194
105 -176 91 -210 112 -444 277 -21 15 -46 32 -55 37 -9 6 -36 23 -61 40 -25
16 -56 36 -70 43 -51 27 -226 114 -270 133 -88 40 -226 113 -290 155 -103 67
-382 224 -398 224 -8 0 -39 14 -68 31 -30 17 -54 28 -54 25 0 -4 -18 4 -41 16
-22 13 -54 31 -71 40 -34 19 -221 154 -247 179 -22 21 -90 71 -121 88 -14 8
-52 31 -85 51 -54 33 -226 122 -405 209 -36 17 -77 39 -92 49 -56 35 -173 117
-183 127 -20 22 -122 98 -174 130 -9 5 -30 20 -48 32 -17 13 -34 23 -38 23 -3
0 -38 20 -78 44 -68 42 -200 108 -212 107 -3 -1 -29 12 -58 29 -30 16 -59 30
-67 30 -10 0 -154 75 -210 110 -54 34 -251 139 -400 214 -211 106 -214 107
-369 225 -68 51 -180 128 -250 170 -129 78 -311 176 -311 167 0 -8 -262 128
-355 184 -125 74 -259 148 -390 213 -102 51 -236 133 -345 212 -67 48 -170
115 -235 153 -62 35 -395 212 -435 229 -8 4 -45 28 -83 55 -37 26 -72 48 -77
48 -6 0 -10 4 -10 8 0 8 -203 162 -214 162 -4 0 -26 13 -50 29 -52 36 -305
167 -355 185 -38 13 -171 85 -251 136 -153 97 -460 267 -460 254 0 -3 -15 4
-34 16 -19 11 -45 23 -56 25 -12 2 -36 13 -53 24 -18 11 -50 29 -72 41 -22 11
-83 54 -135 96 -85 68 -200 149 -255 179 -144 79 -195 106 -195 100 0 -3 -17
2 -37 13 -21 10 -65 31 -98 47 -148 69 -192 93 -277 152 -42 29 -79 53 -82 53
-3 0 -24 13 -48 29 -40 27 -221 120 -398 205 -41 20 -84 42 -95 49 -71 44
-118 77 -202 140 -52 40 -105 79 -117 87 -12 8 -38 27 -57 43 -20 15 -38 27
-42 27 -3 0 -41 21 -84 48 -71 42 -169 93 -323 166 -120 57 -150 77 -345 222
-159 119 -296 202 -460 278 -123 58 -255 123 -275 135 -90 57 -330 181 -475
246 -16 7 -60 27 -98 44 -37 17 -71 31 -77 31 -5 0 -66 29 -135 65 -69 36
-130 63 -135 60 -6 -4 -10 -2 -10 3 0 6 -15 19 -32 31 -18 11 -46 30 -63 41
-30 20 -47 20 -1122 20 -722 0 -1093 -3 -1093 -10z"/>
<path d="M12775 10282 c-108 -57 -335 -183 -365 -203 -8 -5 -28 -16 -45 -24
-16 -9 -48 -27 -70 -40 -56 -35 -215 -116 -215 -110 0 6 -216 -106 -335 -175
-49 -28 -121 -76 -160 -106 -159 -124 -491 -327 -556 -339 -9 -2 -60 -28 -113
-59 -53 -31 -99 -56 -102 -56 -3 0 -17 -8 -32 -19 -168 -114 -493 -321 -506
-321 -4 0 -23 -11 -44 -24 -20 -13 -104 -61 -187 -107 -179 -100 -167 -94
-252 -145 -81 -50 -197 -110 -273 -142 -75 -32 -141 -62 -165 -75 -165 -90
-204 -112 -226 -128 -15 -10 -31 -19 -36 -19 -4 0 -57 -39 -118 -86 -176 -136
-262 -194 -351 -240 -46 -24 -84 -42 -84 -40 0 6 -330 -162 -435 -221 -49 -28
-142 -78 -205 -110 -160 -83 -237 -125 -314 -172 -36 -23 -69 -41 -72 -41 -3
0 -24 -13 -47 -29 -23 -15 -53 -35 -67 -44 -14 -9 -54 -37 -90 -62 -176 -123
-278 -186 -425 -261 -235 -120 -398 -218 -564 -339 -111 -81 -185 -125 -411
-243 -63 -33 -155 -83 -203 -111 -49 -28 -90 -51 -92 -51 -2 0 -21 -12 -42
-26 -34 -23 -186 -99 -402 -201 -41 -19 -120 -62 -175 -95 -227 -136 -343
-187 -361 -157 -4 5 -9 7 -13 5 -12 -7 -13 65 -16 904 -3 833 -14 1225 -40
1340 -25 116 -85 248 -105 235 -5 -3 -34 20 -63 51 -60 64 -132 117 -143 106
-5 -4 -5 1 -2 11 5 14 -3 22 -41 39 -40 17 -69 20 -197 22 -127 1 -150 -1
-150 -14 0 -8 -7 -15 -15 -16 -8 -1 -18 -2 -22 -4 -5 -1 -12 -4 -18 -5 -5 -1
-12 -4 -15 -5 -3 -1 -9 -4 -15 -5 -5 -1 -12 -4 -15 -5 -3 -1 -8 -3 -12 -4 -16
-2 -170 -80 -208 -105 -22 -14 -47 -30 -56 -36 -38 -24 -80 -54 -173 -125
-202 -152 -214 -160 -486 -294 -74 -37 -166 -85 -205 -107 -77 -45 -344 -182
-360 -185 -19 -3 -337 -175 -369 -199 -18 -14 -36 -25 -41 -25 -4 0 -31 -18
-59 -40 -88 -70 -240 -182 -271 -201 -72 -44 -215 -108 -229 -103 -17 6 -59
-13 -52 -25 3 -4 -12 -16 -32 -25 -41 -19 -205 -114 -267 -155 -22 -14 -116
-82 -210 -151 -193 -142 -188 -138 -275 -183 -153 -78 -307 -159 -335 -177
-16 -11 -51 -30 -77 -42 l-48 -23 0 -2042 0 -2042 30 -34 c16 -19 73 -108 127
-198 54 -90 103 -173 110 -184 7 -11 15 -27 19 -35 4 -8 19 -33 34 -55 15 -22
78 -116 140 -210 106 -158 158 -233 226 -327 15 -20 32 -34 37 -31 6 3 7 1 3
-5 -9 -15 123 -154 141 -148 8 3 11 2 8 -3 -3 -6 25 -36 63 -68 191 -165 387
-289 687 -437 390 -192 487 -241 492 -248 2 -5 23 -17 45 -28 40 -19 68 -19
1115 -20 723 0 1072 3 1068 10 -3 5 2 10 11 10 9 0 32 11 50 25 43 33 368 195
384 191 3 0 21 9 40 21 19 12 39 21 43 21 5 0 23 6 40 15 18 8 52 24 77 35 97
44 238 114 305 152 80 44 322 165 407 203 99 44 342 194 455 281 154 119 347
238 403 251 8 2 78 37 155 77 175 93 320 187 419 274 60 53 231 157 362 220
128 61 254 130 375 203 200 121 225 134 519 273 86 41 230 128 305 184 33 24
99 73 146 108 83 62 255 153 311 165 28 6 362 190 463 256 71 46 250 140 314
165 98 38 355 194 486 295 128 98 248 173 384 238 69 34 175 90 235 124 60 35
110 63 111 63 5 0 170 112 230 157 92 68 148 101 295 175 74 37 176 90 225
119 50 28 108 61 130 73 22 12 60 35 85 51 61 39 270 148 270 141 0 -9 287
142 363 191 37 23 70 43 73 43 2 0 43 29 91 65 47 36 82 65 76 65 -5 0 -19 -8
-31 -17 -11 -10 -30 -25 -42 -33 -21 -14 -51 -37 -78 -60 -7 -6 -21 -12 -32
-13 -10 -1 -16 -5 -14 -9 5 -8 -11 -12 -29 -9 -5 1 -6 -2 -3 -7 3 -5 -13 -19
-34 -31 l-40 -22 0 83 c-1 46 -38 1258 -84 2693 -59 1852 -80 2612 -73 2617 6
4 16 4 22 1 5 -4 7 -2 2 2 -8 9 28 30 228 136 72 38 126 69 120 69 -5 0 -59
-26 -120 -58z"/>
<path d="M12791 4844 c0 -11 3 -14 6 -6 3 7 2 16 -1 19 -3 4 -6 -2 -5 -13z"/>
</g>
</svg>
