<svg width="23" height="24" viewBox="0 0 23 24" fill="none" xmlns="http://www.w3.org/2000/svg">
<path d="M6.71879 8.89467L11.287 6.89606C11.4774 6.80089 11.6677 6.80089 11.9532 6.89606L16.5215 8.89467C16.9022 9.08501 17.2829 8.60915 16.9974 8.22846L12.2388 2.42298C11.9532 2.04229 11.3822 2.04229 11.0967 2.42298L6.33811 8.22846C5.95742 8.60915 6.33811 9.08501 6.71879 8.89467Z" stroke="white" stroke-width="1.30521" stroke-miterlimit="10" stroke-linecap="round" stroke-linejoin="round"/>
<path d="M6.71879 14.4147L11.287 16.4133C11.4774 16.5084 11.6677 16.5084 11.9532 16.4133L16.5215 14.4147C16.9022 14.2243 17.2829 14.7002 16.9974 15.0809L12.2388 20.8863C11.9532 21.267 11.3822 21.267 11.0967 20.8863L6.33811 15.0809C5.95742 14.7002 6.33811 14.2243 6.71879 14.4147Z" stroke="white" stroke-width="1.30521" stroke-miterlimit="10" stroke-linecap="round" stroke-linejoin="round"/>
<path d="M11.5725 9.18019L6.62354 11.6547L11.5725 14.1291L16.5214 11.6547L11.5725 9.18019Z" stroke="white" stroke-width="1.30521" stroke-miterlimit="10" stroke-linecap="round" stroke-linejoin="round"/>
</svg>
