<svg width="18" height="18" viewBox="0 0 18 18" fill="none" xmlns="http://www.w3.org/2000/svg">
<path fill-rule="evenodd" clip-rule="evenodd" d="M7.85714 16.875C7.85714 17.1734 7.73674 17.4595 7.52241 17.6705C7.30808 17.8815 7.01739 18 6.71429 18C6.41118 18 6.12049 17.8815 5.90616 17.6705C5.69184 17.4595 5.57143 17.1734 5.57143 16.875V4.5C5.57143 4.20163 5.69184 3.91548 5.90616 3.7045C6.12049 3.49353 6.41118 3.375 6.71429 3.375C7.01739 3.375 7.30808 3.49353 7.52241 3.7045C7.73674 3.91548 7.85714 4.20163 7.85714 4.5V16.875ZM3.28571 16.875C3.28571 17.1734 3.16531 17.4595 2.95098 17.6705C2.73665 17.8815 2.44596 18 2.14286 18C1.83975 18 1.54906 17.8815 1.33474 17.6705C1.12041 17.4595 1 17.1734 1 16.875V9C1 8.70163 1.12041 8.41548 1.33474 8.2045C1.54906 7.99353 1.83975 7.875 2.14286 7.875C2.44596 7.875 2.73665 7.99353 2.95098 8.2045C3.16531 8.41548 3.28571 8.70163 3.28571 9V16.875ZM10.1429 16.875V6.75C10.1429 6.45163 10.2633 6.16548 10.4776 5.9545C10.6919 5.74353 10.9826 5.625 11.2857 5.625C11.5888 5.625 11.8795 5.74353 12.0938 5.9545C12.3082 6.16548 12.4286 6.45163 12.4286 6.75V16.875C12.4286 17.1734 12.3082 17.4595 12.0938 17.6705C11.8795 17.8815 11.5888 18 11.2857 18C10.9826 18 10.6919 17.8815 10.4776 17.6705C10.2633 17.4595 10.1429 17.1734 10.1429 16.875ZM14.7143 1.125C14.7143 0.826631 14.8347 0.540484 15.049 0.329505C15.2633 0.118527 15.554 0 15.8571 0C16.1602 0 16.4509 0.118527 16.6653 0.329505C16.8796 0.540484 17 0.826631 17 1.125V16.875C17 17.1734 16.8796 17.4595 16.6653 17.6705C16.4509 17.8815 16.1602 18 15.8571 18C15.554 18 15.2633 17.8815 15.049 17.6705C14.8347 17.4595 14.7143 17.1734 14.7143 16.875V1.125Z" fill="#EBF8FF"/>
</svg>
