<svg width="18" height="18" viewBox="0 0 18 18" fill="none" xmlns="http://www.w3.org/2000/svg">
<path d="M9 2.8125C14.625 2.8125 18 9 18 9C18 9 14.625 15.1875 9 15.1875C3.375 15.1875 0 9 0 9C0 9 3.375 2.8125 9 2.8125ZM9 3.9375C5.04 3.9375 2.24775 7.59488 1.32187 9C2.24662 10.404 5.03888 14.0625 9 14.0625C12.96 14.0625 15.7522 10.4051 16.6781 9C15.7534 7.596 12.9611 3.9375 9 3.9375V3.9375ZM9 5.0625C10.0443 5.0625 11.0458 5.47734 11.7842 6.21577C12.5227 6.95419 12.9375 7.95571 12.9375 9C12.9375 10.0443 12.5227 11.0458 11.7842 11.7842C11.0458 12.5227 10.0443 12.9375 9 12.9375C7.95571 12.9375 6.95419 12.5227 6.21577 11.7842C5.47734 11.0458 5.0625 10.0443 5.0625 9C5.0625 7.95571 5.47734 6.95419 6.21577 6.21577C6.95419 5.47734 7.95571 5.0625 9 5.0625V5.0625ZM9 6.1875C8.25435 6.18839 7.5395 6.485 7.01225 7.01225C6.485 7.5395 6.18839 8.25435 6.1875 9C6.1875 10.5503 7.44863 11.8125 9 11.8125C10.5514 11.8125 11.8125 10.5503 11.8125 9C11.8125 7.44975 10.5514 6.1875 9 6.1875Z" fill="#5C95FF"/>
</svg>
