<svg width="18" height="18" viewBox="0 0 18 18" fill="none" xmlns="http://www.w3.org/2000/svg">
<path d="M6.3 14.2089L8.1 15.0978V9.24C8.09901 9.00681 8.00527 8.78334 7.839 8.61778L2.007 2.77778H16.011L10.188 8.61778C10.0217 8.78334 9.92799 9.00681 9.927 9.24L9.9 16.1111L11.7 17V9.60444L17.622 3.66667C17.8589 3.4293 17.9942 3.11102 18 2.77778V1.88889C18 1.65314 17.9052 1.42705 17.7364 1.26035C17.5676 1.09365 17.3387 1 17.1 1H0.9C0.661305 1 0.432387 1.09365 0.263604 1.26035C0.0948213 1.42705 0 1.65314 0 1.88889V2.77778C0.00575775 3.11102 0.141107 3.4293 0.378 3.66667L6.3 9.60444V14.2089Z" fill="#EBF8FF"/>
</svg>
