<?xml version="1.0" standalone="no"?>
<!DOCTYPE svg PUBLIC "-//W3C//DTD SVG 20010904//EN"
 "http://www.w3.org/TR/2001/REC-SVG-20010904/DTD/svg10.dtd">
<svg version="1.0" xmlns="http://www.w3.org/2000/svg"
 width="513.000000pt" height="513.000000pt" viewBox="0 0 513.000000 513.000000"
 preserveAspectRatio="xMidYMid meet">

<g transform="translate(0.000000,513.000000) scale(0.100000,-0.100000)"
fill="#000000" stroke="none">
<path d="M0 2565 l0 -2565 2565 0 2565 0 0 2565 0 2565 -2565 0 -2565 0 0
-2565z m2650 1874 c52 -24 1477 -843 1492 -858 5 -4 -118 -80 -273 -169 l-281
-163 -477 275 c-262 151 -496 283 -521 292 -64 24 -182 24 -244 0 -27 -10
-261 -141 -520 -291 l-471 -272 0 -579 0 -579 32 -68 c60 -126 94 -151 607
-447 253 -146 463 -266 468 -268 4 -2 260 142 568 320 l560 323 0 203 c0 111
-3 202 -6 202 -3 0 -90 -45 -193 -100 -103 -55 -191 -100 -194 -100 -4 0 -7
156 -7 348 l0 347 457 240 c251 132 510 268 575 302 l118 62 0 -347 0 -347
-93 -50 -92 -50 -5 -451 -5 -450 -38 -76 c-26 -53 -54 -91 -90 -124 -34 -31
-303 -192 -800 -479 l-749 -432 -726 419 c-400 230 -751 435 -780 455 -61 42
-121 120 -154 202 l-23 56 -3 895 -3 895 748 432 c412 237 771 438 798 447 36
11 82 15 160 13 94 -2 118 -6 165 -28z"/>
</g>
</svg>
