<svg width="45" height="49" viewBox="0 0 45 49" fill="none" xmlns="http://www.w3.org/2000/svg">
<path d="M7.20216 16.5457L19.2548 8.65547C19.2548 8.65547 21.4786 7.46448 23.6731 8.65547C25.8675 9.84645 34.1 16.3969 34.1 16.3969L41.4021 12.2612L25.7 1.1359C24.6072 0.40176 23.3264 0.00695593 22.0151 0C20.9436 0 19.7413 0.125055 19.0196 0.616336C17.491 1.65845 0 12.8239 0 12.8239L0.440949 33.8537C0.440949 33.8537 0.909824 36.7433 3.52759 38.2812C10.8767 42.5985 21.6065 49 21.6065 49L39.0975 38.2812C39.0975 38.2812 41.3551 37.644 42.1371 34.6129C42.919 31.5819 42.1371 23.2108 42.1371 23.2108L44.8298 22.054V13.4789L30.2785 21.0119V29.9443L35.1289 27.1157L35.2318 32.9411L22.4149 39.9381C22.4149 39.9381 21.0186 40.5142 20.1367 39.9188C18.001 38.4762 9.11294 32.9411 9.11294 32.9411C9.11294 32.9411 7.34915 32.0285 7.20216 30.6886C7.05518 29.3488 7.20216 16.5457 7.20216 16.5457Z" fill="white" fill-opacity="0.79"/>
</svg>
