<?xml version="1.0" standalone="yes"?>
<svg xmlns="http://www.w3.org/2000/svg" width="513" height="513">
<path style="fill:#ffffff; stroke:none;" d="M0 0L0 513L513 513L513 0L0 0z"/>
<path style="fill:#f0c7d3; stroke:none;" d="M239 65L240 66L239 65z"/>
<path style="fill:#e5a1b6; stroke:none;" d="M240 65L240 66L243 66L240 65z"/>
<path style="fill:#da7595; stroke:none;" d="M243 65L243 66L251 66L243 65z"/>
<path style="fill:#e5a1b6; stroke:none;" d="M251.667 65.3333L252.333 65.6667L251.667 65.3333z"/>
<path style="fill:#f0c7d3; stroke:none;" d="M253.667 65.3333L254.333 65.6667L253.667 65.3333M234 66L235 67L234 66z"/>
<path style="fill:#e5a1b6; stroke:none;" d="M235 66L236 67L235 66z"/>
<path style="fill:#da7595; stroke:none;" d="M236 66L237 67L236 66z"/>
<path style="fill:#c93765; stroke:none;" d="M434 167C404.714 179.62 375.907 196.669 348 212.139C341.148 215.937 323.005 221.159 319.603 228.39C317.141 233.625 319 243.278 319 249L319 297L359 277C359 286.823 363.075 308.254 357.972 316.671C355.528 320.704 348.961 323.029 345 325.281C335.302 330.795 325.619 336.361 316 342.011C299.41 351.754 282.686 361.272 266 370.85C260.9 373.778 252.122 381.552 246 380.792C237.074 379.683 225.78 369.882 218 365.421C202.305 356.423 186.726 347.227 171 338.281C159.643 331.82 147.698 325.706 140.877 314C134.037 302.264 135 290.08 135 277L135 220C135 211.827 132.022 196.333 136.028 189.105C140.367 181.275 157.331 175.252 165 170.85C187.112 158.158 210.092 140.558 234 131.711C250.26 125.694 263.092 133.212 277 141.15C296.042 152.02 315.094 162.907 334 174.011C340.599 177.886 350.314 186.257 358 187.076C363.119 187.622 369.77 182.031 374 179.576C387.046 172.004 403.997 165.303 415 155C379.221 133.102 342.17 113.233 306 91.9892C285.345 79.8578 265.924 64.9079 241 66.0394C226.121 66.7148 212.49 77.6137 200 84.7191C172.555 100.332 145.384 116.431 118 132.15L91 147.719C87.3582 149.794 81.3775 151.907 79.0278 155.529C76.8341 158.911 78 165.146 78 169L78 202L78 299C78 315.201 75.548 333.552 84.4684 348C93.0587 361.914 109.405 368.534 123 376.424C150.641 392.466 178.275 408.526 206 424.421L234 440.579C237.743 442.724 242.499 446.619 247 446.562C251.258 446.508 255.461 442.882 259 440.85C268.341 435.488 277.639 430.044 287 424.719C314.091 409.308 340.977 393.531 368 378C381.602 370.183 398.642 363.269 407.779 350C415.69 338.513 415 326.292 415 313C415 292.914 413.308 272.003 415.059 252.001C415.993 241.325 431.096 243.544 433.682 234.787C435.555 228.448 434 219.595 434 213L434 167z"/>
<path style="fill:#da7595; stroke:none;" d="M256 66L257 67L256 66z"/>
<path style="fill:#e5a1b6; stroke:none;" d="M257 66L258 67L257 66z"/>
<path style="fill:#f0c7d3; stroke:none;" d="M258 66L259 67L258 66M231 67L232 68L231 67z"/>
<path style="fill:#da7595; stroke:none;" d="M232 67L233 68L232 67M260 67L261 68L260 67z"/>
<path style="fill:#e5a1b6; stroke:none;" d="M261 67L262 68L261 67z"/>
<path style="fill:#f0c7d3; stroke:none;" d="M262 67L263 68L262 67M228 68L229 69L228 68z"/>
<path style="fill:#da7595; stroke:none;" d="M229 68L230 69L229 68M263 68L264 69L263 68z"/>
<path style="fill:#e5a1b6; stroke:none;" d="M264 68L265 69L264 68z"/>
<path style="fill:#f0c7d3; stroke:none;" d="M226 69L227 70L226 69z"/>
<path style="fill:#da7595; stroke:none;" d="M227 69L228 70L227 69M266 69L267 70L266 69z"/>
<path style="fill:#f0c7d3; stroke:none;" d="M224 70L225 71L224 70z"/>
<path style="fill:#da7595; stroke:none;" d="M268 70L269 71L268 70z"/>
<path style="fill:#f0c7d3; stroke:none;" d="M222 71L223 72L222 71z"/>
<path style="fill:#da7595; stroke:none;" d="M270 71L271 72L270 71M221 72L222 73L221 72z"/>
<path style="fill:#e5a1b6; stroke:none;" d="M272 72L273 73L272 72M219 73L220 74L219 73z"/>
<path style="fill:#f0c7d3; stroke:none;" d="M274 73L275 74L274 73M217 74L218 75L217 74z"/>
<path style="fill:#da7595; stroke:none;" d="M275 74L276 75L275 74z"/>
<path style="fill:#f0c7d3; stroke:none;" d="M215 75L216 76L215 75z"/>
<path style="fill:#da7595; stroke:none;" d="M216 75L217 76L216 75z"/>
<path style="fill:#e5a1b6; stroke:none;" d="M277 75L278 76L277 75z"/>
<path style="fill:#da7595; stroke:none;" d="M214 76L215 77L214 76z"/>
<path style="fill:#e5a1b6; stroke:none;" d="M279 76L280 77L279 76M212 77L213 78L212 77z"/>
<path style="fill:#f0c7d3; stroke:none;" d="M281 77L282 78L281 77M210 78L211 79L210 78z"/>
<path style="fill:#da7595; stroke:none;" d="M282 78L283 79L282 78z"/>
<path style="fill:#f0c7d3; stroke:none;" d="M208 79L209 80L208 79z"/>
<path style="fill:#da7595; stroke:none;" d="M209 79L210 80L209 79z"/>
<path style="fill:#e5a1b6; stroke:none;" d="M284 79L285 80L284 79z"/>
<path style="fill:#da7595; stroke:none;" d="M207 80L208 81L207 80z"/>
<path style="fill:#f0c7d3; stroke:none;" d="M286 80L287 81L286 80z"/>
<path style="fill:#e5a1b6; stroke:none;" d="M205 81L206 82L205 81z"/>
<path style="fill:#da7595; stroke:none;" d="M287 81L288 82L287 81z"/>
<path style="fill:#f0c7d3; stroke:none;" d="M288 81L289 82L288 81M203 82L204 83L203 82z"/>
<path style="fill:#da7595; stroke:none;" d="M289 82L290 83L289 82z"/>
<path style="fill:#f0c7d3; stroke:none;" d="M201 83L202 84L201 83z"/>
<path style="fill:#da7595; stroke:none;" d="M202 83L203 84L202 83z"/>
<path style="fill:#e5a1b6; stroke:none;" d="M291 83L292 84L291 83M200 84L201 85L200 84z"/>
<path style="fill:#f0c7d3; stroke:none;" d="M293 84L294 85L293 84z"/>
<path style="fill:#e5a1b6; stroke:none;" d="M198 85L199 86L198 85z"/>
<path style="fill:#da7595; stroke:none;" d="M294 85L295 86L294 85z"/>
<path style="fill:#f0c7d3; stroke:none;" d="M295 85L296 86L295 85M196 86L197 87L196 86z"/>
<path style="fill:#da7595; stroke:none;" d="M296 86L297 87L296 86M195 87L196 88L195 87z"/>
<path style="fill:#e5a1b6; stroke:none;" d="M298 87L299 88L298 87M193 88L194 89L193 88z"/>
<path style="fill:#f0c7d3; stroke:none;" d="M300 88L301 89L300 88z"/>
<path style="fill:#e5a1b6; stroke:none;" d="M191 89L192 90L191 89z"/>
<path style="fill:#da7595; stroke:none;" d="M301 89L302 90L301 89z"/>
<path style="fill:#f0c7d3; stroke:none;" d="M189 90L190 91L189 90z"/>
<path style="fill:#da7595; stroke:none;" d="M190 90L191 91L190 90z"/>
<path style="fill:#e5a1b6; stroke:none;" d="M303 90L304 91L303 90z"/>
<path style="fill:#da7595; stroke:none;" d="M188 91L189 92L188 91z"/>
<path style="fill:#e5a1b6; stroke:none;" d="M305 91L306 92L305 91M186 92L187 93L186 92z"/>
<path style="fill:#da7595; stroke:none;" d="M306 92L307 93L306 92z"/>
<path style="fill:#f0c7d3; stroke:none;" d="M307 92L308 93L307 92z"/>
<path style="fill:#e5a1b6; stroke:none;" d="M184 93L185 94L184 93z"/>
<path style="fill:#da7595; stroke:none;" d="M308 93L309 94L308 93z"/>
<path style="fill:#f0c7d3; stroke:none;" d="M182 94L183 95L182 94z"/>
<path style="fill:#da7595; stroke:none;" d="M183 94L184 95L183 94z"/>
<path style="fill:#e5a1b6; stroke:none;" d="M310 94L311 95L310 94z"/>
<path style="fill:#da7595; stroke:none;" d="M181 95L182 96L181 95z"/>
<path style="fill:#f0c7d3; stroke:none;" d="M312 95L313 96L312 95z"/>
<path style="fill:#e5a1b6; stroke:none;" d="M179 96L180 97L179 96z"/>
<path style="fill:#da7595; stroke:none;" d="M313 96L314 97L313 96z"/>
<path style="fill:#f0c7d3; stroke:none;" d="M314 96L315 97L314 96M177 97L178 98L177 97z"/>
<path style="fill:#da7595; stroke:none;" d="M315 97L316 98L315 97M176 98L177 99L176 98z"/>
<path style="fill:#e5a1b6; stroke:none;" d="M317 98L318 99L317 98M174 99L175 100L174 99z"/>
<path style="fill:#f0c7d3; stroke:none;" d="M319 99L320 100L319 99z"/>
<path style="fill:#e5a1b6; stroke:none;" d="M172 100L173 101L172 100z"/>
<path style="fill:#da7595; stroke:none;" d="M320 100L321 101L320 100z"/>
<path style="fill:#f0c7d3; stroke:none;" d="M321 100L322 101L321 100M170 101L171 102L170 101z"/>
<path style="fill:#da7595; stroke:none;" d="M322 101L323 102L322 101M169 102L170 103L169 102z"/>
<path style="fill:#e5a1b6; stroke:none;" d="M324 102L325 103L324 102M167 103L168 104L167 103z"/>
<path style="fill:#f0c7d3; stroke:none;" d="M326 103L327 104L326 103M165 104L166 105L165 104z"/>
<path style="fill:#da7595; stroke:none;" d="M327 104L328 105L327 104z"/>
<path style="fill:#f0c7d3; stroke:none;" d="M163 105L164 106L163 105z"/>
<path style="fill:#da7595; stroke:none;" d="M164 105L165 106L164 105z"/>
<path style="fill:#e5a1b6; stroke:none;" d="M329 105L330 106L329 105z"/>
<path style="fill:#da7595; stroke:none;" d="M162 106L163 107L162 106z"/>
<path style="fill:#f0c7d3; stroke:none;" d="M331 106L332 107L331 106z"/>
<path style="fill:#e5a1b6; stroke:none;" d="M160 107L161 108L160 107z"/>
<path style="fill:#da7595; stroke:none;" d="M332 107L333 108L332 107z"/>
<path style="fill:#f0c7d3; stroke:none;" d="M333 107L334 108L333 107M158 108L159 109L158 108z"/>
<path style="fill:#da7595; stroke:none;" d="M334 108L335 109L334 108z"/>
<path style="fill:#f0c7d3; stroke:none;" d="M156 109L157 110L156 109z"/>
<path style="fill:#da7595; stroke:none;" d="M157 109L158 110L157 109z"/>
<path style="fill:#e5a1b6; stroke:none;" d="M336 109L337 110L336 109z"/>
<path style="fill:#da7595; stroke:none;" d="M155 110L156 111L155 110z"/>
<path style="fill:#f0c7d3; stroke:none;" d="M338 110L339 111L338 110z"/>
<path style="fill:#e5a1b6; stroke:none;" d="M153 111L154 112L153 111z"/>
<path style="fill:#da7595; stroke:none;" d="M339 111L340 112L339 111z"/>
<path style="fill:#f0c7d3; stroke:none;" d="M340 111L341 112L340 111M151 112L152 113L151 112z"/>
<path style="fill:#da7595; stroke:none;" d="M341 112L342 113L341 112M150 113L151 114L150 113z"/>
<path style="fill:#e5a1b6; stroke:none;" d="M343 113L344 114L343 113M148 114L149 115L148 114z"/>
<path style="fill:#f0c7d3; stroke:none;" d="M345 114L346 115L345 114z"/>
<path style="fill:#e5a1b6; stroke:none;" d="M146 115L147 116L146 115z"/>
<path style="fill:#da7595; stroke:none;" d="M346 115L347 116L346 115z"/>
<path style="fill:#f0c7d3; stroke:none;" d="M347 115L348 116L347 115M144 116L145 117L144 116z"/>
<path style="fill:#da7595; stroke:none;" d="M145 116L146 117L145 116z"/>
<path style="fill:#e5a1b6; stroke:none;" d="M348 116L349 117L348 116z"/>
<path style="fill:#da7595; stroke:none;" d="M143 117L144 118L143 117z"/>
<path style="fill:#e5a1b6; stroke:none;" d="M350 117L351 118L350 117M141 118L142 119L141 118z"/>
<path style="fill:#f0c7d3; stroke:none;" d="M352 118L353 119L352 118z"/>
<path style="fill:#e5a1b6; stroke:none;" d="M139 119L140 120L139 119z"/>
<path style="fill:#da7595; stroke:none;" d="M353 119L354 120L353 119z"/>
<path style="fill:#f0c7d3; stroke:none;" d="M137 120L138 121L137 120z"/>
<path style="fill:#da7595; stroke:none;" d="M138 120L139 121L138 120z"/>
<path style="fill:#e5a1b6; stroke:none;" d="M355 120L356 121L355 120z"/>
<path style="fill:#da7595; stroke:none;" d="M136 121L137 122L136 121z"/>
<path style="fill:#f0c7d3; stroke:none;" d="M357 121L358 122L357 121z"/>
<path style="fill:#e5a1b6; stroke:none;" d="M134 122L135 123L134 122z"/>
<path style="fill:#da7595; stroke:none;" d="M358 122L359 123L358 122z"/>
<path style="fill:#f0c7d3; stroke:none;" d="M359 122L360 123L359 122M132 123L133 124L132 123z"/>
<path style="fill:#da7595; stroke:none;" d="M360 123L361 124L360 123z"/>
<path style="fill:#f0c7d3; stroke:none;" d="M130 124L131 125L130 124z"/>
<path style="fill:#da7595; stroke:none;" d="M131 124L132 125L131 124z"/>
<path style="fill:#e5a1b6; stroke:none;" d="M362 124L363 125L362 124z"/>
<path style="fill:#da7595; stroke:none;" d="M129 125L130 126L129 125z"/>
<path style="fill:#f0c7d3; stroke:none;" d="M364 125L365 126L364 125z"/>
<path style="fill:#e5a1b6; stroke:none;" d="M127 126L128 127L127 126z"/>
<path style="fill:#da7595; stroke:none;" d="M365 126L366 127L365 126z"/>
<path style="fill:#f0c7d3; stroke:none;" d="M366 126L367 127L366 126M125 127L126 128L125 127z"/>
<path style="fill:#da7595; stroke:none;" d="M367 127L368 128L367 127M124 128L125 129L124 128z"/>
<path style="fill:#e5a1b6; stroke:none;" d="M369 128L370 129L369 128M122 129L123 130L122 129z"/>
<path style="fill:#da7595; stroke:none;" d="M242 129L242 130L245 130L242 129z"/>
<path style="fill:#e5a1b6; stroke:none;" d="M245 129L245 130L248 130L245 129z"/>
<path style="fill:#da7595; stroke:none;" d="M248 129L248 130L251 130L248 129z"/>
<path style="fill:#f0c7d3; stroke:none;" d="M371 129L372 130L371 129M120 130L121 131L120 130z"/>
<path style="fill:#da7595; stroke:none;" d="M237 130L238 131L237 130z"/>
<path style="fill:#e5a1b6; stroke:none;" d="M238 130L239 131L238 130z"/>
<path style="fill:#f0c7d3; stroke:none;" d="M239 130L240 131L239 130M253.667 130.333L254.333 130.667L253.667 130.333z"/>
<path style="fill:#da7595; stroke:none;" d="M255 130L256 131L255 130M372 130L373 131L372 130z"/>
<path style="fill:#f0c7d3; stroke:none;" d="M118 131L119 132L118 131z"/>
<path style="fill:#da7595; stroke:none;" d="M119 131L120 132L119 131M234 131L235 132L234 131z"/>
<path style="fill:#f0c7d3; stroke:none;" d="M235 131L236 132L235 131z"/>
<path style="fill:#e5a1b6; stroke:none;" d="M258 131L259 132L258 131z"/>
<path style="fill:#da7595; stroke:none;" d="M259 131L260 132L259 131z"/>
<path style="fill:#e5a1b6; stroke:none;" d="M374 131L375 132L374 131z"/>
<path style="fill:#da7595; stroke:none;" d="M117 132L118 133L117 132M231 132L232 133L231 132z"/>
<path style="fill:#f0c7d3; stroke:none;" d="M232 132L233 133L232 132z"/>
<path style="fill:#da7595; stroke:none;" d="M261 132L262 133L261 132z"/>
<path style="fill:#e5a1b6; stroke:none;" d="M376 132L377 133L376 132M115 133L116 134L115 133z"/>
<path style="fill:#da7595; stroke:none;" d="M229 133L230 134L229 133z"/>
<path style="fill:#f0c7d3; stroke:none;" d="M230 133L231 134L230 133z"/>
<path style="fill:#e5a1b6; stroke:none;" d="M263 133L264 134L263 133z"/>
<path style="fill:#da7595; stroke:none;" d="M377 133L378 134L377 133z"/>
<path style="fill:#f0c7d3; stroke:none;" d="M378 133L379 134L378 133M113 134L114 135L113 134M228 134L229 135L228 134z"/>
<path style="fill:#e5a1b6; stroke:none;" d="M265 134L266 135L265 134z"/>
<path style="fill:#da7595; stroke:none;" d="M379 134L380 135L379 134z"/>
<path style="fill:#f0c7d3; stroke:none;" d="M111 135L112 136L111 135z"/>
<path style="fill:#da7595; stroke:none;" d="M112 135L113 136L112 135z"/>
<path style="fill:#e5a1b6; stroke:none;" d="M226 135L227 136L226 135z"/>
<path style="fill:#da7595; stroke:none;" d="M267 135L268 136L267 135z"/>
<path style="fill:#e5a1b6; stroke:none;" d="M381 135L382 136L381 135z"/>
<path style="fill:#da7595; stroke:none;" d="M110 136L111 137L110 136M224 136L225 137L224 136z"/>
<path style="fill:#f0c7d3; stroke:none;" d="M268 136L269 137L268 136M383 136L384 137L383 136z"/>
<path style="fill:#e5a1b6; stroke:none;" d="M108 137L109 138L108 137z"/>
<path style="fill:#da7595; stroke:none;" d="M222 137L223 138L222 137z"/>
<path style="fill:#f0c7d3; stroke:none;" d="M223 137L224 138L223 137z"/>
<path style="fill:#e5a1b6; stroke:none;" d="M270 137L271 138L270 137z"/>
<path style="fill:#da7595; stroke:none;" d="M384 137L385 138L384 137z"/>
<path style="fill:#f0c7d3; stroke:none;" d="M385 137L386 138L385 137M106 138L107 139L106 138M221 138L222 139L221 138z"/>
<path style="fill:#e5a1b6; stroke:none;" d="M272 138L273 139L272 138z"/>
<path style="fill:#da7595; stroke:none;" d="M386 138L387 139L386 138z"/>
<path style="fill:#f0c7d3; stroke:none;" d="M104 139L105 140L104 139z"/>
<path style="fill:#da7595; stroke:none;" d="M105 139L106 140L105 139z"/>
<path style="fill:#e5a1b6; stroke:none;" d="M219 139L220 140L219 139z"/>
<path style="fill:#f0c7d3; stroke:none;" d="M273 139L274 140L273 139z"/>
<path style="fill:#da7595; stroke:none;" d="M274 139L275 140L274 139z"/>
<path style="fill:#e5a1b6; stroke:none;" d="M388 139L389 140L388 139M103 140L104 141L103 140z"/>
<path style="fill:#da7595; stroke:none;" d="M217 140L218 141L217 140z"/>
<path style="fill:#f0c7d3; stroke:none;" d="M275 140L276 141L275 140M390 140L391 141L390 140z"/>
<path style="fill:#e5a1b6; stroke:none;" d="M101 141L102 142L101 141z"/>
<path style="fill:#da7595; stroke:none;" d="M215 141L216 142L215 141z"/>
<path style="fill:#f0c7d3; stroke:none;" d="M216 141L217 142L216 141z"/>
<path style="fill:#e5a1b6; stroke:none;" d="M277 141L278 142L277 141z"/>
<path style="fill:#da7595; stroke:none;" d="M391 141L392 142L391 141z"/>
<path style="fill:#f0c7d3; stroke:none;" d="M392 141L393 142L392 141M99 142L100 143L99 142M214 142L215 143L214 142z"/>
<path style="fill:#da7595; stroke:none;" d="M279 142L280 143L279 142M393 142L394 143L393 142M98 143L99 144L98 143z"/>
<path style="fill:#e5a1b6; stroke:none;" d="M212 143L213 144L212 143z"/>
<path style="fill:#f0c7d3; stroke:none;" d="M280 143L281 144L280 143z"/>
<path style="fill:#da7595; stroke:none;" d="M281 143L282 144L281 143z"/>
<path style="fill:#e5a1b6; stroke:none;" d="M395 143L396 144L395 143M96 144L97 145L96 144z"/>
<path style="fill:#da7595; stroke:none;" d="M210 144L211 145L210 144z"/>
<path style="fill:#f0c7d3; stroke:none;" d="M282 144L283 145L282 144M397 144L398 145L397 144M94 145L95 146L94 145z"/>
<path style="fill:#da7595; stroke:none;" d="M208 145L209 146L208 145z"/>
<path style="fill:#f0c7d3; stroke:none;" d="M209 145L210 146L209 145z"/>
<path style="fill:#e5a1b6; stroke:none;" d="M284 145L285 146L284 145z"/>
<path style="fill:#da7595; stroke:none;" d="M398 145L399 146L398 145z"/>
<path style="fill:#f0c7d3; stroke:none;" d="M92 146L93 147L92 146z"/>
<path style="fill:#da7595; stroke:none;" d="M93 146L94 147L93 146z"/>
<path style="fill:#e5a1b6; stroke:none;" d="M207 146L208 147L207 146z"/>
<path style="fill:#da7595; stroke:none;" d="M286 146L287 147L286 146z"/>
<path style="fill:#e5a1b6; stroke:none;" d="M400 146L401 147L400 146z"/>
<path style="fill:#da7595; stroke:none;" d="M91 147L92 148L91 147z"/>
<path style="fill:#e5a1b6; stroke:none;" d="M205 147L206 148L205 147z"/>
<path style="fill:#f0c7d3; stroke:none;" d="M287 147L288 148L287 147z"/>
<path style="fill:#da7595; stroke:none;" d="M288 147L289 148L288 147z"/>
<path style="fill:#f0c7d3; stroke:none;" d="M402 147L403 148L402 147z"/>
<path style="fill:#e5a1b6; stroke:none;" d="M89 148L90 149L89 148z"/>
<path style="fill:#da7595; stroke:none;" d="M203 148L204 149L203 148z"/>
<path style="fill:#f0c7d3; stroke:none;" d="M289 148L290 149L289 148z"/>
<path style="fill:#da7595; stroke:none;" d="M403 148L404 149L403 148z"/>
<path style="fill:#f0c7d3; stroke:none;" d="M404 148L405 149L404 148M87 149L88 150L87 149M202 149L203 150L202 149z"/>
<path style="fill:#e5a1b6; stroke:none;" d="M291 149L292 150L291 149z"/>
<path style="fill:#da7595; stroke:none;" d="M405 149L406 150L405 149z"/>
<path style="fill:#f0c7d3; stroke:none;" d="M85 150L86 151L85 150z"/>
<path style="fill:#da7595; stroke:none;" d="M86 150L87 151L86 150z"/>
<path style="fill:#e5a1b6; stroke:none;" d="M200 150L201 151L200 150z"/>
<path style="fill:#da7595; stroke:none;" d="M293 150L294 151L293 150z"/>
<path style="fill:#e5a1b6; stroke:none;" d="M407 150L408 151L407 150z"/>
<path style="fill:#da7595; stroke:none;" d="M84 151L85 152L84 151M198 151L199 152L198 151z"/>
<path style="fill:#f0c7d3; stroke:none;" d="M294 151L295 152L294 151M409 151L410 152L409 151z"/>
<path style="fill:#e5a1b6; stroke:none;" d="M82 152L83 153L82 152z"/>
<path style="fill:#da7595; stroke:none;" d="M196 152L197 153L196 152z"/>
<path style="fill:#f0c7d3; stroke:none;" d="M197 152L198 153L197 152z"/>
<path style="fill:#e5a1b6; stroke:none;" d="M296 152L297 153L296 152z"/>
<path style="fill:#da7595; stroke:none;" d="M410 152L411 153L410 152z"/>
<path style="fill:#f0c7d3; stroke:none;" d="M411 152L412 153L411 152M80 153L81 154L80 153z"/>
<path style="fill:#e5a1b6; stroke:none;" d="M195 153L196 154L195 153z"/>
<path style="fill:#da7595; stroke:none;" d="M298 153L299 154L298 153M412 153L413 154L412 153M79 154L80 155L79 154z"/>
<path style="fill:#e5a1b6; stroke:none;" d="M193 154L194 155L193 154z"/>
<path style="fill:#f0c7d3; stroke:none;" d="M299 154L300 155L299 154z"/>
<path style="fill:#da7595; stroke:none;" d="M300 154L301 155L300 154z"/>
<path style="fill:#e5a1b6; stroke:none;" d="M414 154L415 155L414 154z"/>
<path style="fill:#f0c7d3; stroke:none;" d="M77 155L77 327L78 327L78 206C78 191.7 82.5057 168.121 77 155z"/>
<path style="fill:#da7595; stroke:none;" d="M191 155L192 156L191 155z"/>
<path style="fill:#f0c7d3; stroke:none;" d="M301 155L302 156L301 155z"/>
<path style="fill:#e5a1b6; stroke:none;" d="M415 155L416 156L415 155z"/>
<path style="fill:#da7595; stroke:none;" d="M189 156L190 157L189 156z"/>
<path style="fill:#f0c7d3; stroke:none;" d="M190 156L191 157L190 156z"/>
<path style="fill:#e5a1b6; stroke:none;" d="M303 156L304 157L303 156z"/>
<path style="fill:#da7595; stroke:none;" d="M413 156L414 157L413 156z"/>
<path style="fill:#f0c7d3; stroke:none;" d="M414 156L415 157L414 156M188 157L189 158L188 157z"/>
<path style="fill:#da7595; stroke:none;" d="M305 157L306 158L305 157z"/>
<path style="fill:#f0c7d3; stroke:none;" d="M412 157L413 158L412 157z"/>
<path style="fill:#e5a1b6; stroke:none;" d="M186 158L187 159L186 158z"/>
<path style="fill:#f0c7d3; stroke:none;" d="M306 158L307 159L306 158z"/>
<path style="fill:#da7595; stroke:none;" d="M307 158L308 159L307 158z"/>
<path style="fill:#e5a1b6; stroke:none;" d="M410 158L411 159L410 158z"/>
<path style="fill:#da7595; stroke:none;" d="M184 159L185 160L184 159z"/>
<path style="fill:#e5a1b6; stroke:none;" d="M308 159L309 160L308 159z"/>
<path style="fill:#da7595; stroke:none;" d="M408 159L409 160L408 159z"/>
<path style="fill:#f0c7d3; stroke:none;" d="M183 160L184 161L183 160z"/>
<path style="fill:#e5a1b6; stroke:none;" d="M310 160L311 161L310 160z"/>
<path style="fill:#da7595; stroke:none;" d="M406 160L407 161L406 160z"/>
<path style="fill:#f0c7d3; stroke:none;" d="M407 160L408 161L407 160z"/>
<path style="fill:#e5a1b6; stroke:none;" d="M181 161L182 162L181 161z"/>
<path style="fill:#da7595; stroke:none;" d="M312 161L313 162L312 161z"/>
<path style="fill:#f0c7d3; stroke:none;" d="M405 161L406 162L405 161z"/>
<path style="fill:#e5a1b6; stroke:none;" d="M179 162L180 163L179 162z"/>
<path style="fill:#f0c7d3; stroke:none;" d="M313 162L314 163L313 162z"/>
<path style="fill:#da7595; stroke:none;" d="M314 162L315 163L314 162z"/>
<path style="fill:#e5a1b6; stroke:none;" d="M403 162L404 163L403 162z"/>
<path style="fill:#da7595; stroke:none;" d="M177 163L178 164L177 163z"/>
<path style="fill:#f0c7d3; stroke:none;" d="M178 163L179 164L178 163z"/>
<path style="fill:#e5a1b6; stroke:none;" d="M315 163L316 164L315 163z"/>
<path style="fill:#da7595; stroke:none;" d="M401 163L402 164L401 163z"/>
<path style="fill:#f0c7d3; stroke:none;" d="M176 164L177 165L176 164z"/>
<path style="fill:#e5a1b6; stroke:none;" d="M317 164L318 165L317 164z"/>
<path style="fill:#f0c7d3; stroke:none;" d="M400 164L401 165L400 164z"/>
<path style="fill:#e5a1b6; stroke:none;" d="M174 165L175 166L174 165z"/>
<path style="fill:#da7595; stroke:none;" d="M319 165L320 166L319 165z"/>
<path style="fill:#e5a1b6; stroke:none;" d="M398 165L399 166L398 165z"/>
<path style="fill:#da7595; stroke:none;" d="M172 166L173 167L172 166z"/>
<path style="fill:#f0c7d3; stroke:none;" d="M320 166L321 167L320 166z"/>
<path style="fill:#da7595; stroke:none;" d="M396 166L397 167L396 166z"/>
<path style="fill:#f0c7d3; stroke:none;" d="M434 166L435 167L434 166z"/>
<path style="fill:#da7595; stroke:none;" d="M170 167L171 168L170 167z"/>
<path style="fill:#f0c7d3; stroke:none;" d="M171 167L172 168L171 167z"/>
<path style="fill:#e5a1b6; stroke:none;" d="M322 167L323 168L322 167z"/>
<path style="fill:#da7595; stroke:none;" d="M394 167L395 168L394 167z"/>
<path style="fill:#f0c7d3; stroke:none;" d="M395 167L396 168L395 167M432 167L433 168L432 167z"/>
<path style="fill:#da7595; stroke:none;" d="M434 167L434 236L435 236L435 189L434 167z"/>
<path style="fill:#f0c7d3; stroke:none;" d="M169 168L170 169L169 168z"/>
<path style="fill:#da7595; stroke:none;" d="M324 168L325 169L324 168z"/>
<path style="fill:#f0c7d3; stroke:none;" d="M393 168L394 169L393 168M430 168L431 169L430 168z"/>
<path style="fill:#e5a1b6; stroke:none;" d="M167 169L168 170L167 169z"/>
<path style="fill:#f0c7d3; stroke:none;" d="M325 169L326 170L325 169z"/>
<path style="fill:#da7595; stroke:none;" d="M326 169L327 170L326 169z"/>
<path style="fill:#e5a1b6; stroke:none;" d="M391 169L392 170L391 169z"/>
<path style="fill:#f0c7d3; stroke:none;" d="M428 169L429 170L428 169z"/>
<path style="fill:#da7595; stroke:none;" d="M165 170L166 171L165 170z"/>
<path style="fill:#f0c7d3; stroke:none;" d="M327 170L328 171L327 170z"/>
<path style="fill:#da7595; stroke:none;" d="M389 170L390 171L389 170z"/>
<path style="fill:#f0c7d3; stroke:none;" d="M426 170L427 171L426 170z"/>
<path style="fill:#da7595; stroke:none;" d="M427 170L428 171L427 170M163 171L164 172L163 171z"/>
<path style="fill:#f0c7d3; stroke:none;" d="M164 171L165 172L164 171z"/>
<path style="fill:#e5a1b6; stroke:none;" d="M329 171L330 172L329 171z"/>
<path style="fill:#da7595; stroke:none;" d="M387 171L388 172L387 171z"/>
<path style="fill:#f0c7d3; stroke:none;" d="M388 171L389 172L388 171M424 171L425 172L424 171z"/>
<path style="fill:#da7595; stroke:none;" d="M425 171L426 172L425 171z"/>
<path style="fill:#f0c7d3; stroke:none;" d="M162 172L163 173L162 172z"/>
<path style="fill:#da7595; stroke:none;" d="M331 172L332 173L331 172z"/>
<path style="fill:#f0c7d3; stroke:none;" d="M386 172L387 173L386 172z"/>
<path style="fill:#da7595; stroke:none;" d="M423 172L424 173L423 172z"/>
<path style="fill:#e5a1b6; stroke:none;" d="M160 173L161 174L160 173z"/>
<path style="fill:#f0c7d3; stroke:none;" d="M332 173L333 174L332 173z"/>
<path style="fill:#da7595; stroke:none;" d="M333 173L334 174L333 173z"/>
<path style="fill:#e5a1b6; stroke:none;" d="M384 173L385 174L384 173z"/>
<path style="fill:#da7595; stroke:none;" d="M421 173L422 174L421 173M158 174L159 175L158 174z"/>
<path style="fill:#f0c7d3; stroke:none;" d="M334 174L335 175L334 174z"/>
<path style="fill:#da7595; stroke:none;" d="M382 174L383 175L382 174z"/>
<path style="fill:#e5a1b6; stroke:none;" d="M419 174L420 175L419 174z"/>
<path style="fill:#f0c7d3; stroke:none;" d="M157 175L158 176L157 175z"/>
<path style="fill:#e5a1b6; stroke:none;" d="M336 175L337 176L336 175z"/>
<path style="fill:#da7595; stroke:none;" d="M380 175L381 176L380 175z"/>
<path style="fill:#f0c7d3; stroke:none;" d="M381 175L382 176L381 175z"/>
<path style="fill:#e5a1b6; stroke:none;" d="M417 175L418 176L417 175M155 176L156 177L155 176z"/>
<path style="fill:#da7595; stroke:none;" d="M338 176L339 177L338 176z"/>
<path style="fill:#e5a1b6; stroke:none;" d="M379 176L380 177L379 176M415 176L416 177L415 176z"/>
<path style="fill:#da7595; stroke:none;" d="M153 177L154 178L153 177z"/>
<path style="fill:#f0c7d3; stroke:none;" d="M339 177L340 178L339 177z"/>
<path style="fill:#e5a1b6; stroke:none;" d="M377 177L378 178L377 177z"/>
<path style="fill:#f0c7d3; stroke:none;" d="M413 177L414 178L413 177z"/>
<path style="fill:#da7595; stroke:none;" d="M151 178L152 179L151 178z"/>
<path style="fill:#f0c7d3; stroke:none;" d="M152 178L153 179L152 178z"/>
<path style="fill:#e5a1b6; stroke:none;" d="M341 178L342 179L341 178z"/>
<path style="fill:#da7595; stroke:none;" d="M375 178L376 179L375 178z"/>
<path style="fill:#f0c7d3; stroke:none;" d="M411 178L412 179L411 178M150 179L151 180L150 179z"/>
<path style="fill:#e5a1b6; stroke:none;" d="M343 179L344 180L343 179z"/>
<path style="fill:#f0c7d3; stroke:none;" d="M374 179L375 180L374 179M409 179L410 180L409 179z"/>
<path style="fill:#e5a1b6; stroke:none;" d="M148 180L149 181L148 180z"/>
<path style="fill:#da7595; stroke:none;" d="M345 180L346 181L345 180z"/>
<path style="fill:#e5a1b6; stroke:none;" d="M372 180L373 181L372 180z"/>
<path style="fill:#f0c7d3; stroke:none;" d="M407 180L408 181L407 180z"/>
<path style="fill:#da7595; stroke:none;" d="M408 180L409 181L408 180M146 181L147 182L146 181z"/>
<path style="fill:#f0c7d3; stroke:none;" d="M346 181L347 182L346 181z"/>
<path style="fill:#da7595; stroke:none;" d="M370 181L371 182L370 181z"/>
<path style="fill:#f0c7d3; stroke:none;" d="M405 181L406 182L405 181z"/>
<path style="fill:#da7595; stroke:none;" d="M406 181L407 182L406 181M144 182L145 183L144 182z"/>
<path style="fill:#f0c7d3; stroke:none;" d="M145 182L146 183L145 182z"/>
<path style="fill:#e5a1b6; stroke:none;" d="M348 182L349 183L348 182z"/>
<path style="fill:#da7595; stroke:none;" d="M368 182L369 183L368 182z"/>
<path style="fill:#f0c7d3; stroke:none;" d="M369 182L370 183L369 182z"/>
<path style="fill:#da7595; stroke:none;" d="M404 182L405 183L404 182z"/>
<path style="fill:#f0c7d3; stroke:none;" d="M143 183L144 184L143 183z"/>
<path style="fill:#da7595; stroke:none;" d="M350 183L351 184L350 183z"/>
<path style="fill:#f0c7d3; stroke:none;" d="M367 183L368 184L367 183z"/>
<path style="fill:#da7595; stroke:none;" d="M402 183L403 184L402 183z"/>
<path style="fill:#e5a1b6; stroke:none;" d="M141 184L142 185L141 184z"/>
<path style="fill:#f0c7d3; stroke:none;" d="M351 184L352 185L351 184z"/>
<path style="fill:#da7595; stroke:none;" d="M352 184L353 185L352 184z"/>
<path style="fill:#e5a1b6; stroke:none;" d="M365 184L366 185L365 184z"/>
<path style="fill:#da7595; stroke:none;" d="M400 184L401 185L400 184M139 185L140 186L139 185z"/>
<path style="fill:#f0c7d3; stroke:none;" d="M353 185L354 186L353 185z"/>
<path style="fill:#da7595; stroke:none;" d="M363 185L364 186L363 185z"/>
<path style="fill:#e5a1b6; stroke:none;" d="M398 185L399 186L398 185z"/>
<path style="fill:#da7595; stroke:none;" d="M137 186L138 187L137 186z"/>
<path style="fill:#f0c7d3; stroke:none;" d="M138 186L139 187L138 186z"/>
<path style="fill:#e5a1b6; stroke:none;" d="M355 186L356 187L355 186z"/>
<path style="fill:#da7595; stroke:none;" d="M361 186L362 187L361 186z"/>
<path style="fill:#f0c7d3; stroke:none;" d="M362 186L363 187L362 186z"/>
<path style="fill:#e5a1b6; stroke:none;" d="M396 186L397 187L396 186z"/>
<path style="fill:#f0c7d3; stroke:none;" d="M136 187L137 188L136 187z"/>
<path style="fill:#da7595; stroke:none;" d="M357 187L358 188L357 187z"/>
<path style="fill:#f0c7d3; stroke:none;" d="M360 187L361 188L360 187z"/>
<path style="fill:#e5a1b6; stroke:none;" d="M394 187L395 188L394 187z"/>
<path style="fill:#f0c7d3; stroke:none;" d="M358 188L359 189L358 188M392 188L393 189L392 188M390 189L391 190L390 189M388 190L389 191L388 190z"/>
<path style="fill:#da7595; stroke:none;" d="M389 190L390 191L389 190z"/>
<path style="fill:#f0c7d3; stroke:none;" d="M386 191L387 192L386 191z"/>
<path style="fill:#da7595; stroke:none;" d="M387 191L388 192L387 191z"/>
<path style="fill:#f0c7d3; stroke:none;" d="M384 192L385 193L384 192z"/>
<path style="fill:#da7595; stroke:none;" d="M385 192L386 193L385 192M383 193L384 194L383 193M381 194L382 195L381 194z"/>
<path style="fill:#e5a1b6; stroke:none;" d="M379 195L380 196L379 195M377 196L378 197L377 196M375 197L376 198L375 197z"/>
<path style="fill:#f0c7d3; stroke:none;" d="M373 198L374 199L373 198M371 199L372 200L371 199M369 200L370 201L369 200M367 201L368 202L367 201z"/>
<path style="fill:#da7595; stroke:none;" d="M368 201L369 202L368 201z"/>
<path style="fill:#f0c7d3; stroke:none;" d="M365 202L366 203L365 202z"/>
<path style="fill:#da7595; stroke:none;" d="M366 202L367 203L366 202M364 203L365 204L364 203M362 204L363 205L362 204z"/>
<path style="fill:#e5a1b6; stroke:none;" d="M360 205L361 206L360 205M358 206L359 207L358 206M356 207L357 208L356 207z"/>
<path style="fill:#f0c7d3; stroke:none;" d="M354 208L355 209L354 208M352 209L353 210L352 209M350 210L351 211L350 210M348 211L349 212L348 211z"/>
<path style="fill:#da7595; stroke:none;" d="M349 211L350 212L349 211z"/>
<path style="fill:#f0c7d3; stroke:none;" d="M346 212L347 213L346 212z"/>
<path style="fill:#da7595; stroke:none;" d="M347 212L348 213L347 212M345 213L346 214L345 213M343 214L344 215L343 214M341 215L342 216L341 215z"/>
<path style="fill:#e5a1b6; stroke:none;" d="M339 216L340 217L339 216M337 217L338 218L337 217M335 218L336 219L335 218z"/>
<path style="fill:#f0c7d3; stroke:none;" d="M333 219L334 220L333 219M331 220L332 221L331 220M329 221L330 222L329 221z"/>
<path style="fill:#da7595; stroke:none;" d="M330 221L331 222L330 221z"/>
<path style="fill:#f0c7d3; stroke:none;" d="M327 222L328 223L327 222z"/>
<path style="fill:#da7595; stroke:none;" d="M328 222L329 223L328 222z"/>
<path style="fill:#f0c7d3; stroke:none;" d="M325 223L326 224L325 223z"/>
<path style="fill:#da7595; stroke:none;" d="M326 223L327 224L326 223M324 224L325 225L324 224M322 225L323 226L322 225z"/>
<path style="fill:#e5a1b6; stroke:none;" d="M320 226L321 227L320 226M434 236L435 237L434 236z"/>
<path style="fill:#da7595; stroke:none;" d="M432 237L433 238L432 237M430 238L431 239L430 238M428 239L429 240L428 239z"/>
<path style="fill:#f0c7d3; stroke:none;" d="M429 239L430 240L429 239M427 240L428 241L427 240M425 241L426 242L425 241z"/>
<path style="fill:#e5a1b6; stroke:none;" d="M423 242L424 243L423 242M421 243L422 244L421 243M419 244L420 245L419 244z"/>
<path style="fill:#da7595; stroke:none;" d="M417 245L418 246L417 245M415 247L415 328L416 328L416 272L415 247z"/>
<path style="fill:#e5a1b6; stroke:none;" d="M357 277L358 278L357 277z"/>
<path style="fill:#f0c7d3; stroke:none;" d="M358 277L358 317L359 317C359 305.566 362.411 287.512 358 277z"/>
<path style="fill:#da7595; stroke:none;" d="M355 278L356 279L355 278M353 279L354 280L353 279M351 280L352 281L351 280z"/>
<path style="fill:#f0c7d3; stroke:none;" d="M352 280L353 281L352 280z"/>
<path style="fill:#da7595; stroke:none;" d="M349 281L350 282L349 281z"/>
<path style="fill:#f0c7d3; stroke:none;" d="M350 281L351 282L350 281M348 282L349 283L348 282M346 283L347 284L346 283z"/>
<path style="fill:#e5a1b6; stroke:none;" d="M344 284L345 285L344 284M342 285L343 286L342 285z"/>
<path style="fill:#da7595; stroke:none;" d="M340 286L341 287L340 286M338 287L339 288L338 287M336 288L337 289L336 288z"/>
<path style="fill:#f0c7d3; stroke:none;" d="M337 288L338 289L337 288z"/>
<path style="fill:#da7595; stroke:none;" d="M334 289L335 290L334 289z"/>
<path style="fill:#f0c7d3; stroke:none;" d="M335 289L336 290L335 289M333 290L334 291L333 290M331 291L332 292L331 291z"/>
<path style="fill:#e5a1b6; stroke:none;" d="M329 292L330 293L329 292M327 293L328 294L327 293M325 294L326 295L325 294z"/>
<path style="fill:#da7595; stroke:none;" d="M323 295L324 296L323 295z"/>
<path style="fill:#f0c7d3; stroke:none;" d="M135.333 296.667L135.667 297.333L135.333 296.667z"/>
<path style="fill:#da7595; stroke:none;" d="M321 296L322 297L321 296M319 297L320 298L319 297z"/>
<path style="fill:#f0c7d3; stroke:none;" d="M320 297L321 298L320 297z"/>
<path style="fill:#e5a1b6; stroke:none;" d="M135.333 298.667L135.667 299.333L135.333 298.667z"/>
<path style="fill:#da7595; stroke:none;" d="M135 300L136 301L135 300z"/>
<path style="fill:#f0c7d3; stroke:none;" d="M136 302L137 303L136 302z"/>
<path style="fill:#e5a1b6; stroke:none;" d="M136 303L137 304L136 303z"/>
<path style="fill:#da7595; stroke:none;" d="M136 304L137 305L136 304z"/>
<path style="fill:#f0c7d3; stroke:none;" d="M137 306L138 307L137 306z"/>
<path style="fill:#da7595; stroke:none;" d="M137 307L138 308L137 307z"/>
<path style="fill:#e5a1b6; stroke:none;" d="M138 309L139 310L138 309M139 311L140 312L139 311M140 313L141 314L140 313z"/>
<path style="fill:#da7595; stroke:none;" d="M141 315L142 316L141 315z"/>
<path style="fill:#e5a1b6; stroke:none;" d="M142 316L143 317L142 316M358 317L359 318L358 317z"/>
<path style="fill:#da7595; stroke:none;" d="M143 318L144 319L143 318z"/>
<path style="fill:#f0c7d3; stroke:none;" d="M356 318L357 319L356 318z"/>
<path style="fill:#da7595; stroke:none;" d="M144 319L145 320L144 319z"/>
<path style="fill:#f0c7d3; stroke:none;" d="M354 319L355 320L354 319z"/>
<path style="fill:#da7595; stroke:none;" d="M355 319L356 320L355 319z"/>
<path style="fill:#e5a1b6; stroke:none;" d="M145 320L146 321L145 320z"/>
<path style="fill:#da7595; stroke:none;" d="M353 320L354 321L353 320z"/>
<path style="fill:#f0c7d3; stroke:none;" d="M146 321L147 322L146 321z"/>
<path style="fill:#e5a1b6; stroke:none;" d="M351 321L352 322L351 321z"/>
<path style="fill:#f0c7d3; stroke:none;" d="M147 322L148 323L147 322z"/>
<path style="fill:#e5a1b6; stroke:none;" d="M349 322L350 323L349 322z"/>
<path style="fill:#f0c7d3; stroke:none;" d="M148 323L149 324L148 323M347 323L348 324L347 323z"/>
<path style="fill:#da7595; stroke:none;" d="M348 323L349 324L348 323z"/>
<path style="fill:#f0c7d3; stroke:none;" d="M149 324L150 325L149 324z"/>
<path style="fill:#da7595; stroke:none;" d="M346 324L347 325L346 324z"/>
<path style="fill:#e5a1b6; stroke:none;" d="M150 325L151 326L150 325M344 325L345 326L344 325z"/>
<path style="fill:#da7595; stroke:none;" d="M151 326L152 327L151 326z"/>
<path style="fill:#f0c7d3; stroke:none;" d="M342 326L343 327L342 326z"/>
<path style="fill:#da7595; stroke:none;" d="M152 327L153 328L152 327z"/>
<path style="fill:#f0c7d3; stroke:none;" d="M153 327L154 328L153 327z"/>
<path style="fill:#da7595; stroke:none;" d="M341 327L342 328L341 327z"/>
<path style="fill:#e5a1b6; stroke:none;" d="M154 328L155 329L154 328M339 328L340 329L339 328M415.333 328.667L415.667 329.333L415.333 328.667z"/>
<path style="fill:#da7595; stroke:none;" d="M155 329L156 330L155 329z"/>
<path style="fill:#f0c7d3; stroke:none;" d="M156 329L157 330L156 329z"/>
<path style="fill:#e5a1b6; stroke:none;" d="M337 329L338 330L337 329z"/>
<path style="fill:#da7595; stroke:none;" d="M78.3333 330.667L78.6667 331.333L78.3333 330.667z"/>
<path style="fill:#e5a1b6; stroke:none;" d="M157 330L158 331L157 330z"/>
<path style="fill:#f0c7d3; stroke:none;" d="M335 330L336 331L335 330M415.333 330.667L415.667 331.333L415.333 330.667z"/>
<path style="fill:#e5a1b6; stroke:none;" d="M159 331L160 332L159 331z"/>
<path style="fill:#da7595; stroke:none;" d="M334 331L335 332L334 331z"/>
<path style="fill:#e5a1b6; stroke:none;" d="M78 332L79 333L78 332z"/>
<path style="fill:#f0c7d3; stroke:none;" d="M161 332L162 333L161 332z"/>
<path style="fill:#e5a1b6; stroke:none;" d="M332 332L333 333L332 332z"/>
<path style="fill:#f0c7d3; stroke:none;" d="M78 333L79 334L78 333z"/>
<path style="fill:#da7595; stroke:none;" d="M162 333L163 334L162 333z"/>
<path style="fill:#e5a1b6; stroke:none;" d="M330 333L331 334L330 333M164 334L165 335L164 334z"/>
<path style="fill:#f0c7d3; stroke:none;" d="M328 334L329 335L328 334z"/>
<path style="fill:#da7595; stroke:none;" d="M329 334L330 335L329 334M414 334L415 335L414 334z"/>
<path style="fill:#f0c7d3; stroke:none;" d="M166 335L167 336L166 335z"/>
<path style="fill:#da7595; stroke:none;" d="M327 335L328 336L327 335z"/>
<path style="fill:#e5a1b6; stroke:none;" d="M414 335L415 336L414 335z"/>
<path style="fill:#da7595; stroke:none;" d="M79 336L80 337L79 336M167 336L168 337L167 336z"/>
<path style="fill:#f0c7d3; stroke:none;" d="M168 336L169 337L168 336z"/>
<path style="fill:#e5a1b6; stroke:none;" d="M325 336L326 337L325 336z"/>
<path style="fill:#f0c7d3; stroke:none;" d="M414 336L415 337L414 336M79 337L80 338L79 337z"/>
<path style="fill:#da7595; stroke:none;" d="M169 337L170 338L169 337z"/>
<path style="fill:#f0c7d3; stroke:none;" d="M323 337L324 338L323 337z"/>
<path style="fill:#e5a1b6; stroke:none;" d="M171 338L172 339L171 338z"/>
<path style="fill:#f0c7d3; stroke:none;" d="M321 338L322 339L321 338z"/>
<path style="fill:#da7595; stroke:none;" d="M322 338L323 339L322 338z"/>
<path style="fill:#e5a1b6; stroke:none;" d="M413 338L414 339L413 338z"/>
<path style="fill:#da7595; stroke:none;" d="M80 339L81 340L80 339z"/>
<path style="fill:#f0c7d3; stroke:none;" d="M173 339L174 340L173 339z"/>
<path style="fill:#da7595; stroke:none;" d="M320 339L321 340L320 339z"/>
<path style="fill:#f0c7d3; stroke:none;" d="M413 339L414 340L413 339z"/>
<path style="fill:#e5a1b6; stroke:none;" d="M80 340L81 341L80 340z"/>
<path style="fill:#da7595; stroke:none;" d="M174 340L175 341L174 340z"/>
<path style="fill:#f0c7d3; stroke:none;" d="M175 340L176 341L175 340z"/>
<path style="fill:#e5a1b6; stroke:none;" d="M318 340L319 341L318 340z"/>
<path style="fill:#da7595; stroke:none;" d="M176 341L177 342L176 341z"/>
<path style="fill:#f0c7d3; stroke:none;" d="M316 341L317 342L316 341z"/>
<path style="fill:#e5a1b6; stroke:none;" d="M412 341L413 342L412 341M81 342L82 343L81 342M178 342L179 343L178 342z"/>
<path style="fill:#da7595; stroke:none;" d="M315 342L316 343L315 342z"/>
<path style="fill:#f0c7d3; stroke:none;" d="M180 343L181 344L180 343z"/>
<path style="fill:#e5a1b6; stroke:none;" d="M313 343L314 344L313 343z"/>
<path style="fill:#da7595; stroke:none;" d="M411 343L412 344L411 343M82 344L83 345L82 344M181 344L182 345L181 344z"/>
<path style="fill:#e5a1b6; stroke:none;" d="M311 344L312 345L311 344M183 345L184 346L183 345z"/>
<path style="fill:#f0c7d3; stroke:none;" d="M309 345L310 346L309 345z"/>
<path style="fill:#da7595; stroke:none;" d="M310 345L311 346L310 345M410 345L411 346L410 345z"/>
<path style="fill:#e5a1b6; stroke:none;" d="M83 346L84 347L83 346M185 346L186 347L185 346z"/>
<path style="fill:#da7595; stroke:none;" d="M308 346L309 347L308 346z"/>
<path style="fill:#f0c7d3; stroke:none;" d="M187 347L188 348L187 347z"/>
<path style="fill:#e5a1b6; stroke:none;" d="M306 347L307 348L306 347M409 347L410 348L409 347z"/>
<path style="fill:#f0c7d3; stroke:none;" d="M84 348L85 349L84 348z"/>
<path style="fill:#da7595; stroke:none;" d="M188 348L189 349L188 348z"/>
<path style="fill:#f0c7d3; stroke:none;" d="M304 348L305 349L304 348z"/>
<path style="fill:#da7595; stroke:none;" d="M85 349L86 350L85 349z"/>
<path style="fill:#e5a1b6; stroke:none;" d="M190 349L191 350L190 349z"/>
<path style="fill:#f0c7d3; stroke:none;" d="M302 349L303 350L302 349z"/>
<path style="fill:#da7595; stroke:none;" d="M303 349L304 350L303 349z"/>
<path style="fill:#f0c7d3; stroke:none;" d="M408 349L409 350L408 349M192 350L193 351L192 350z"/>
<path style="fill:#da7595; stroke:none;" d="M301 350L302 351L301 350z"/>
<path style="fill:#e5a1b6; stroke:none;" d="M407 350L408 351L407 350z"/>
<path style="fill:#f0c7d3; stroke:none;" d="M86 351L87 352L86 351z"/>
<path style="fill:#da7595; stroke:none;" d="M193 351L194 352L193 351z"/>
<path style="fill:#f0c7d3; stroke:none;" d="M194 351L195 352L194 351z"/>
<path style="fill:#e5a1b6; stroke:none;" d="M299 351L300 352L299 351z"/>
<path style="fill:#da7595; stroke:none;" d="M406 351L407 352L406 351z"/>
<path style="fill:#e5a1b6; stroke:none;" d="M87 352L88 353L87 352z"/>
<path style="fill:#da7595; stroke:none;" d="M195 352L196 353L195 352z"/>
<path style="fill:#f0c7d3; stroke:none;" d="M297 352L298 353L297 352z"/>
<path style="fill:#da7595; stroke:none;" d="M88 353L89 354L88 353z"/>
<path style="fill:#e5a1b6; stroke:none;" d="M197 353L198 354L197 353z"/>
<path style="fill:#f0c7d3; stroke:none;" d="M295 353L296 354L295 353z"/>
<path style="fill:#da7595; stroke:none;" d="M296 353L297 354L296 353z"/>
<path style="fill:#f0c7d3; stroke:none;" d="M405 353L406 354L405 353z"/>
<path style="fill:#da7595; stroke:none;" d="M89 354L90 355L89 354z"/>
<path style="fill:#f0c7d3; stroke:none;" d="M199 354L200 355L199 354z"/>
<path style="fill:#da7595; stroke:none;" d="M294 354L295 355L294 354z"/>
<path style="fill:#f0c7d3; stroke:none;" d="M404 354L405 355L404 354z"/>
<path style="fill:#da7595; stroke:none;" d="M90 355L91 356L90 355M200 355L201 356L200 355z"/>
<path style="fill:#f0c7d3; stroke:none;" d="M201 355L202 356L201 355z"/>
<path style="fill:#e5a1b6; stroke:none;" d="M292 355L293 356L292 355M403 355L404 356L403 355z"/>
<path style="fill:#da7595; stroke:none;" d="M91 356L92 357L91 356M202 356L203 357L202 356z"/>
<path style="fill:#f0c7d3; stroke:none;" d="M290 356L291 357L290 356z"/>
<path style="fill:#e5a1b6; stroke:none;" d="M402 356L403 357L402 356z"/>
<path style="fill:#da7595; stroke:none;" d="M92 357L93 358L92 357z"/>
<path style="fill:#e5a1b6; stroke:none;" d="M204 357L205 358L204 357z"/>
<path style="fill:#da7595; stroke:none;" d="M289 357L290 358L289 357z"/>
<path style="fill:#f0c7d3; stroke:none;" d="M401 357L402 358L401 357z"/>
<path style="fill:#da7595; stroke:none;" d="M93 358L94 359L93 358z"/>
<path style="fill:#f0c7d3; stroke:none;" d="M206 358L207 359L206 358z"/>
<path style="fill:#e5a1b6; stroke:none;" d="M287 358L288 359L287 358z"/>
<path style="fill:#f0c7d3; stroke:none;" d="M400 358L401 359L400 358z"/>
<path style="fill:#e5a1b6; stroke:none;" d="M94 359L95 360L94 359z"/>
<path style="fill:#da7595; stroke:none;" d="M207 359L208 360L207 359z"/>
<path style="fill:#f0c7d3; stroke:none;" d="M285 359L286 360L285 359M399 359L400 360L399 359M95 360L96 361L95 360z"/>
<path style="fill:#e5a1b6; stroke:none;" d="M209 360L210 361L209 360z"/>
<path style="fill:#f0c7d3; stroke:none;" d="M283 360L284 361L283 360z"/>
<path style="fill:#da7595; stroke:none;" d="M284 360L285 361L284 360M397 360L398 361L397 360M97 361L98 362L97 361z"/>
<path style="fill:#e5a1b6; stroke:none;" d="M211 361L212 362L211 361z"/>
<path style="fill:#da7595; stroke:none;" d="M282 361L283 362L282 361z"/>
<path style="fill:#e5a1b6; stroke:none;" d="M396 361L397 362L396 361z"/>
<path style="fill:#f0c7d3; stroke:none;" d="M98 362L99 363L98 362z"/>
<path style="fill:#da7595; stroke:none;" d="M212 362L213 363L212 362z"/>
<path style="fill:#f0c7d3; stroke:none;" d="M213 362L214 363L213 362z"/>
<path style="fill:#e5a1b6; stroke:none;" d="M280 362L281 363L280 362z"/>
<path style="fill:#da7595; stroke:none;" d="M394 362L395 363L394 362z"/>
<path style="fill:#e5a1b6; stroke:none;" d="M100 363L101 364L100 363z"/>
<path style="fill:#da7595; stroke:none;" d="M214 363L215 364L214 363z"/>
<path style="fill:#f0c7d3; stroke:none;" d="M278 363L279 364L278 363M393 363L394 364L393 363z"/>
<path style="fill:#da7595; stroke:none;" d="M102 364L103 365L102 364z"/>
<path style="fill:#e5a1b6; stroke:none;" d="M216 364L217 365L216 364z"/>
<path style="fill:#f0c7d3; stroke:none;" d="M276 364L277 365L276 364z"/>
<path style="fill:#da7595; stroke:none;" d="M277 364L278 365L277 364z"/>
<path style="fill:#e5a1b6; stroke:none;" d="M391 364L392 365L391 364z"/>
<path style="fill:#f0c7d3; stroke:none;" d="M103 365L104 366L103 365M218 365L219 366L218 365z"/>
<path style="fill:#da7595; stroke:none;" d="M275 365L276 366L275 365M389 365L390 366L389 365z"/>
<path style="fill:#e5a1b6; stroke:none;" d="M105 366L106 367L105 366z"/>
<path style="fill:#da7595; stroke:none;" d="M219 366L220 367L219 366z"/>
<path style="fill:#f0c7d3; stroke:none;" d="M220 366L221 367L220 366z"/>
<path style="fill:#e5a1b6; stroke:none;" d="M273 366L274 367L273 366z"/>
<path style="fill:#da7595; stroke:none;" d="M387 366L388 367L387 366z"/>
<path style="fill:#f0c7d3; stroke:none;" d="M388 366L389 367L388 366z"/>
<path style="fill:#e5a1b6; stroke:none;" d="M107 367L108 368L107 367z"/>
<path style="fill:#da7595; stroke:none;" d="M221 367L222 368L221 367z"/>
<path style="fill:#f0c7d3; stroke:none;" d="M271 367L272 368L271 367M386 367L387 368L386 367M108 368L109 369L108 368z"/>
<path style="fill:#da7595; stroke:none;" d="M109 368L110 369L109 368z"/>
<path style="fill:#e5a1b6; stroke:none;" d="M223 368L224 369L223 368z"/>
<path style="fill:#f0c7d3; stroke:none;" d="M269 368L270 369L269 368z"/>
<path style="fill:#da7595; stroke:none;" d="M270 368L271 369L270 368z"/>
<path style="fill:#e5a1b6; stroke:none;" d="M384 368L385 369L384 368z"/>
<path style="fill:#f0c7d3; stroke:none;" d="M110 369L111 370L110 369M225 369L226 370L225 369z"/>
<path style="fill:#e5a1b6; stroke:none;" d="M268 369L269 370L268 369z"/>
<path style="fill:#da7595; stroke:none;" d="M382 369L383 370L382 369z"/>
<path style="fill:#e5a1b6; stroke:none;" d="M112 370L113 371L112 370z"/>
<path style="fill:#da7595; stroke:none;" d="M226 370L227 371L226 370z"/>
<path style="fill:#f0c7d3; stroke:none;" d="M227 370L228 371L227 370z"/>
<path style="fill:#e5a1b6; stroke:none;" d="M266 370L267 371L266 370z"/>
<path style="fill:#da7595; stroke:none;" d="M380 370L381 371L380 370z"/>
<path style="fill:#f0c7d3; stroke:none;" d="M381 370L382 371L381 370z"/>
<path style="fill:#da7595; stroke:none;" d="M114 371L115 372L114 371M228 371L229 372L228 371z"/>
<path style="fill:#f0c7d3; stroke:none;" d="M264 371L265 372L264 371M379 371L380 372L379 371M115 372L116 373L115 372z"/>
<path style="fill:#da7595; stroke:none;" d="M116 372L117 373L116 372z"/>
<path style="fill:#e5a1b6; stroke:none;" d="M230 372L231 373L230 372z"/>
<path style="fill:#da7595; stroke:none;" d="M263 372L264 373L263 372z"/>
<path style="fill:#e5a1b6; stroke:none;" d="M377 372L378 373L377 372M117 373L118 374L117 373z"/>
<path style="fill:#f0c7d3; stroke:none;" d="M232 373L233 374L232 373z"/>
<path style="fill:#e5a1b6; stroke:none;" d="M261 373L262 374L261 373z"/>
<path style="fill:#da7595; stroke:none;" d="M375 373L376 374L375 373z"/>
<path style="fill:#e5a1b6; stroke:none;" d="M119 374L120 375L119 374z"/>
<path style="fill:#da7595; stroke:none;" d="M233 374L234 375L233 374z"/>
<path style="fill:#e5a1b6; stroke:none;" d="M259 374L260 375L259 374z"/>
<path style="fill:#f0c7d3; stroke:none;" d="M374 374L375 375L374 374z"/>
<path style="fill:#da7595; stroke:none;" d="M121 375L122 376L121 375z"/>
<path style="fill:#e5a1b6; stroke:none;" d="M235 375L236 376L235 375z"/>
<path style="fill:#f0c7d3; stroke:none;" d="M257 375L258 376L257 375z"/>
<path style="fill:#da7595; stroke:none;" d="M258 375L259 376L258 375z"/>
<path style="fill:#e5a1b6; stroke:none;" d="M372 375L373 376L372 375z"/>
<path style="fill:#f0c7d3; stroke:none;" d="M122 376L123 377L122 376z"/>
<path style="fill:#da7595; stroke:none;" d="M123 376L124 377L123 376z"/>
<path style="fill:#f0c7d3; stroke:none;" d="M237 376L238 377L237 376z"/>
<path style="fill:#da7595; stroke:none;" d="M256 376L257 377L256 376z"/>
<path style="fill:#e5a1b6; stroke:none;" d="M370 376L371 377L370 376z"/>
<path style="fill:#f0c7d3; stroke:none;" d="M124 377L125 378L124 377z"/>
<path style="fill:#da7595; stroke:none;" d="M238 377L239 378L238 377z"/>
<path style="fill:#f0c7d3; stroke:none;" d="M239 377L240 378L239 377z"/>
<path style="fill:#e5a1b6; stroke:none;" d="M254 377L255 378L254 377z"/>
<path style="fill:#da7595; stroke:none;" d="M368 377L369 378L368 377z"/>
<path style="fill:#e5a1b6; stroke:none;" d="M126 378L127 379L126 378z"/>
<path style="fill:#da7595; stroke:none;" d="M240 378L241 379L240 378z"/>
<path style="fill:#e5a1b6; stroke:none;" d="M252 378L253 379L252 378z"/>
<path style="fill:#f0c7d3; stroke:none;" d="M367 378L368 379L367 378z"/>
<path style="fill:#da7595; stroke:none;" d="M128 379L129 380L128 379z"/>
<path style="fill:#e5a1b6; stroke:none;" d="M242 379L243 380L242 379z"/>
<path style="fill:#f0c7d3; stroke:none;" d="M250 379L251 380L250 379z"/>
<path style="fill:#da7595; stroke:none;" d="M251 379L252 380L251 379z"/>
<path style="fill:#e5a1b6; stroke:none;" d="M365 379L366 380L365 379z"/>
<path style="fill:#f0c7d3; stroke:none;" d="M129 380L130 381L129 380z"/>
<path style="fill:#e5a1b6; stroke:none;" d="M244 380L245 381L244 380z"/>
<path style="fill:#da7595; stroke:none;" d="M249 380L250 381L249 380M363 380L364 381L363 380z"/>
<path style="fill:#e5a1b6; stroke:none;" d="M131 381L132 382L131 381z"/>
<path style="fill:#da7595; stroke:none;" d="M245 381L246 382L245 381z"/>
<path style="fill:#f0c7d3; stroke:none;" d="M246 381L247 382L246 381z"/>
<path style="fill:#e5a1b6; stroke:none;" d="M247 381L248 382L247 381z"/>
<path style="fill:#da7595; stroke:none;" d="M361 381L362 382L361 381z"/>
<path style="fill:#f0c7d3; stroke:none;" d="M362 381L363 382L362 381z"/>
<path style="fill:#da7595; stroke:none;" d="M133 382L134 383L133 382z"/>
<path style="fill:#e5a1b6; stroke:none;" d="M360 382L361 383L360 382z"/>
<path style="fill:#f0c7d3; stroke:none;" d="M134 383L135 384L134 383z"/>
<path style="fill:#da7595; stroke:none;" d="M135 383L136 384L135 383z"/>
<path style="fill:#e5a1b6; stroke:none;" d="M358 383L359 384L358 383z"/>
<path style="fill:#f0c7d3; stroke:none;" d="M136 384L137 385L136 384z"/>
<path style="fill:#da7595; stroke:none;" d="M356 384L357 385L356 384z"/>
<path style="fill:#e5a1b6; stroke:none;" d="M138 385L139 386L138 385z"/>
<path style="fill:#da7595; stroke:none;" d="M354 385L355 386L354 385z"/>
<path style="fill:#f0c7d3; stroke:none;" d="M355 385L356 386L355 385z"/>
<path style="fill:#da7595; stroke:none;" d="M140 386L141 387L140 386z"/>
<path style="fill:#e5a1b6; stroke:none;" d="M353 386L354 387L353 386z"/>
<path style="fill:#f0c7d3; stroke:none;" d="M141 387L142 388L141 387z"/>
<path style="fill:#da7595; stroke:none;" d="M142 387L143 388L142 387z"/>
<path style="fill:#e5a1b6; stroke:none;" d="M351 387L352 388L351 387z"/>
<path style="fill:#f0c7d3; stroke:none;" d="M143 388L144 389L143 388z"/>
<path style="fill:#da7595; stroke:none;" d="M349 388L350 389L349 388z"/>
<path style="fill:#e5a1b6; stroke:none;" d="M145 389L146 390L145 389z"/>
<path style="fill:#f0c7d3; stroke:none;" d="M348 389L349 390L348 389z"/>
<path style="fill:#da7595; stroke:none;" d="M147 390L148 391L147 390z"/>
<path style="fill:#e5a1b6; stroke:none;" d="M346 390L347 391L346 390z"/>
<path style="fill:#f0c7d3; stroke:none;" d="M148 391L149 392L148 391z"/>
<path style="fill:#da7595; stroke:none;" d="M149 391L150 392L149 391z"/>
<path style="fill:#e5a1b6; stroke:none;" d="M344 391L345 392L344 391M150 392L151 393L150 392z"/>
<path style="fill:#da7595; stroke:none;" d="M342 392L343 393L342 392z"/>
<path style="fill:#f0c7d3; stroke:none;" d="M343 392L344 393L343 392z"/>
<path style="fill:#e5a1b6; stroke:none;" d="M152 393L153 394L152 393z"/>
<path style="fill:#f0c7d3; stroke:none;" d="M341 393L342 394L341 393z"/>
<path style="fill:#da7595; stroke:none;" d="M154 394L155 395L154 394z"/>
<path style="fill:#e5a1b6; stroke:none;" d="M339 394L340 395L339 394z"/>
<path style="fill:#f0c7d3; stroke:none;" d="M155 395L156 396L155 395z"/>
<path style="fill:#da7595; stroke:none;" d="M337 395L338 396L337 395z"/>
<path style="fill:#e5a1b6; stroke:none;" d="M157 396L158 397L157 396z"/>
<path style="fill:#da7595; stroke:none;" d="M335 396L336 397L335 396z"/>
<path style="fill:#f0c7d3; stroke:none;" d="M336 396L337 397L336 396z"/>
<path style="fill:#da7595; stroke:none;" d="M159 397L160 398L159 397z"/>
<path style="fill:#e5a1b6; stroke:none;" d="M334 397L335 398L334 397z"/>
<path style="fill:#f0c7d3; stroke:none;" d="M160 398L161 399L160 398z"/>
<path style="fill:#da7595; stroke:none;" d="M161 398L162 399L161 398z"/>
<path style="fill:#e5a1b6; stroke:none;" d="M332 398L333 399L332 398z"/>
<path style="fill:#f0c7d3; stroke:none;" d="M162 399L163 400L162 399z"/>
<path style="fill:#da7595; stroke:none;" d="M330 399L331 400L330 399z"/>
<path style="fill:#e5a1b6; stroke:none;" d="M164 400L165 401L164 400z"/>
<path style="fill:#da7595; stroke:none;" d="M328 400L329 401L328 400z"/>
<path style="fill:#f0c7d3; stroke:none;" d="M329 400L330 401L329 400z"/>
<path style="fill:#da7595; stroke:none;" d="M166 401L167 402L166 401z"/>
<path style="fill:#f0c7d3; stroke:none;" d="M327 401L328 402L327 401M167 402L168 403L167 402z"/>
<path style="fill:#da7595; stroke:none;" d="M168 402L169 403L168 402z"/>
<path style="fill:#e5a1b6; stroke:none;" d="M325 402L326 403L325 402M169 403L170 404L169 403z"/>
<path style="fill:#da7595; stroke:none;" d="M323 403L324 404L323 403z"/>
<path style="fill:#e5a1b6; stroke:none;" d="M171 404L172 405L171 404z"/>
<path style="fill:#f0c7d3; stroke:none;" d="M322 404L323 405L322 404z"/>
<path style="fill:#da7595; stroke:none;" d="M173 405L174 406L173 405z"/>
<path style="fill:#e5a1b6; stroke:none;" d="M320 405L321 406L320 405z"/>
<path style="fill:#f0c7d3; stroke:none;" d="M174 406L175 407L174 406z"/>
<path style="fill:#da7595; stroke:none;" d="M318 406L319 407L318 406z"/>
<path style="fill:#e5a1b6; stroke:none;" d="M176 407L177 408L176 407z"/>
<path style="fill:#da7595; stroke:none;" d="M316 407L317 408L316 407z"/>
<path style="fill:#f0c7d3; stroke:none;" d="M317 407L318 408L317 407z"/>
<path style="fill:#e5a1b6; stroke:none;" d="M178 408L179 409L178 408z"/>
<path style="fill:#f0c7d3; stroke:none;" d="M315 408L316 409L315 408z"/>
<path style="fill:#da7595; stroke:none;" d="M180 409L181 410L180 409z"/>
<path style="fill:#e5a1b6; stroke:none;" d="M313 409L314 410L313 409z"/>
<path style="fill:#f0c7d3; stroke:none;" d="M181 410L182 411L181 410z"/>
<path style="fill:#da7595; stroke:none;" d="M311 410L312 411L311 410z"/>
<path style="fill:#e5a1b6; stroke:none;" d="M183 411L184 412L183 411z"/>
<path style="fill:#da7595; stroke:none;" d="M309 411L310 412L309 411z"/>
<path style="fill:#f0c7d3; stroke:none;" d="M310 411L311 412L310 411z"/>
<path style="fill:#da7595; stroke:none;" d="M185 412L186 413L185 412z"/>
<path style="fill:#f0c7d3; stroke:none;" d="M308 412L309 413L308 412M186 413L187 414L186 413z"/>
<path style="fill:#da7595; stroke:none;" d="M187 413L188 414L187 413z"/>
<path style="fill:#e5a1b6; stroke:none;" d="M306 413L307 414L306 413z"/>
<path style="fill:#f0c7d3; stroke:none;" d="M188 414L189 415L188 414z"/>
<path style="fill:#da7595; stroke:none;" d="M304 414L305 415L304 414z"/>
<path style="fill:#e5a1b6; stroke:none;" d="M190 415L191 416L190 415z"/>
<path style="fill:#da7595; stroke:none;" d="M302 415L303 416L302 415z"/>
<path style="fill:#f0c7d3; stroke:none;" d="M303 415L304 416L303 415z"/>
<path style="fill:#da7595; stroke:none;" d="M192 416L193 417L192 416z"/>
<path style="fill:#e5a1b6; stroke:none;" d="M301 416L302 417L301 416z"/>
<path style="fill:#f0c7d3; stroke:none;" d="M193 417L194 418L193 417z"/>
<path style="fill:#da7595; stroke:none;" d="M194 417L195 418L194 417z"/>
<path style="fill:#e5a1b6; stroke:none;" d="M299 417L300 418L299 417M195 418L196 419L195 418z"/>
<path style="fill:#da7595; stroke:none;" d="M297 418L298 419L297 418z"/>
<path style="fill:#e5a1b6; stroke:none;" d="M197 419L198 420L197 419z"/>
<path style="fill:#f0c7d3; stroke:none;" d="M296 419L297 420L296 419z"/>
<path style="fill:#da7595; stroke:none;" d="M199 420L200 421L199 420z"/>
<path style="fill:#e5a1b6; stroke:none;" d="M294 420L295 421L294 420z"/>
<path style="fill:#f0c7d3; stroke:none;" d="M200 421L201 422L200 421z"/>
<path style="fill:#da7595; stroke:none;" d="M292 421L293 422L292 421z"/>
<path style="fill:#e5a1b6; stroke:none;" d="M202 422L203 423L202 422z"/>
<path style="fill:#da7595; stroke:none;" d="M290 422L291 423L290 422z"/>
<path style="fill:#f0c7d3; stroke:none;" d="M291 422L292 423L291 422z"/>
<path style="fill:#da7595; stroke:none;" d="M204 423L205 424L204 423z"/>
<path style="fill:#f0c7d3; stroke:none;" d="M289 423L290 424L289 423M205 424L206 425L205 424z"/>
<path style="fill:#da7595; stroke:none;" d="M206 424L207 425L206 424z"/>
<path style="fill:#e5a1b6; stroke:none;" d="M287 424L288 425L287 424z"/>
<path style="fill:#f0c7d3; stroke:none;" d="M207 425L208 426L207 425z"/>
<path style="fill:#da7595; stroke:none;" d="M285 425L286 426L285 425z"/>
<path style="fill:#e5a1b6; stroke:none;" d="M209 426L210 427L209 426z"/>
<path style="fill:#da7595; stroke:none;" d="M283 426L284 427L283 426z"/>
<path style="fill:#f0c7d3; stroke:none;" d="M284 426L285 427L284 426z"/>
<path style="fill:#da7595; stroke:none;" d="M211 427L212 428L211 427z"/>
<path style="fill:#f0c7d3; stroke:none;" d="M282 427L283 428L282 427M212 428L213 429L212 428z"/>
<path style="fill:#da7595; stroke:none;" d="M213 428L214 429L213 428z"/>
<path style="fill:#e5a1b6; stroke:none;" d="M280 428L281 429L280 428z"/>
<path style="fill:#f0c7d3; stroke:none;" d="M214 429L215 430L214 429z"/>
<path style="fill:#da7595; stroke:none;" d="M278 429L279 430L278 429z"/>
<path style="fill:#e5a1b6; stroke:none;" d="M216 430L217 431L216 430z"/>
<path style="fill:#f0c7d3; stroke:none;" d="M277 430L278 431L277 430z"/>
<path style="fill:#da7595; stroke:none;" d="M218 431L219 432L218 431z"/>
<path style="fill:#e5a1b6; stroke:none;" d="M275 431L276 432L275 431z"/>
<path style="fill:#f0c7d3; stroke:none;" d="M219 432L220 433L219 432z"/>
<path style="fill:#da7595; stroke:none;" d="M220 432L221 433L220 432z"/>
<path style="fill:#e5a1b6; stroke:none;" d="M273 432L274 433L273 432z"/>
<path style="fill:#f0c7d3; stroke:none;" d="M221 433L222 434L221 433z"/>
<path style="fill:#da7595; stroke:none;" d="M271 433L272 434L271 433z"/>
<path style="fill:#e5a1b6; stroke:none;" d="M223 434L224 435L223 434z"/>
<path style="fill:#f0c7d3; stroke:none;" d="M270 434L271 435L270 434z"/>
<path style="fill:#da7595; stroke:none;" d="M225 435L226 436L225 435z"/>
<path style="fill:#e5a1b6; stroke:none;" d="M268 435L269 436L268 435z"/>
<path style="fill:#f0c7d3; stroke:none;" d="M226 436L227 437L226 436z"/>
<path style="fill:#da7595; stroke:none;" d="M266 436L267 437L266 436z"/>
<path style="fill:#e5a1b6; stroke:none;" d="M228 437L229 438L228 437z"/>
<path style="fill:#da7595; stroke:none;" d="M264 437L265 438L264 437z"/>
<path style="fill:#f0c7d3; stroke:none;" d="M265 437L266 438L265 437z"/>
<path style="fill:#da7595; stroke:none;" d="M230 438L231 439L230 438z"/>
<path style="fill:#e5a1b6; stroke:none;" d="M263 438L264 439L263 438z"/>
<path style="fill:#f0c7d3; stroke:none;" d="M231 439L232 440L231 439z"/>
<path style="fill:#da7595; stroke:none;" d="M232 439L233 440L232 439z"/>
<path style="fill:#e5a1b6; stroke:none;" d="M261 439L262 440L261 439z"/>
<path style="fill:#f0c7d3; stroke:none;" d="M233 440L234 441L233 440z"/>
<path style="fill:#da7595; stroke:none;" d="M259 440L260 441L259 440z"/>
<path style="fill:#e5a1b6; stroke:none;" d="M235 441L236 442L235 441z"/>
<path style="fill:#da7595; stroke:none;" d="M257 441L258 442L257 441z"/>
<path style="fill:#f0c7d3; stroke:none;" d="M258 441L259 442L258 441z"/>
<path style="fill:#da7595; stroke:none;" d="M237 442L238 443L237 442z"/>
<path style="fill:#f0c7d3; stroke:none;" d="M256 442L257 443L256 442M238 443L239 444L238 443z"/>
<path style="fill:#da7595; stroke:none;" d="M239 443L240 444L239 443z"/>
<path style="fill:#e5a1b6; stroke:none;" d="M254 443L255 444L254 443z"/>
<path style="fill:#f0c7d3; stroke:none;" d="M240 444L241 445L240 444z"/>
<path style="fill:#da7595; stroke:none;" d="M252 444L253 445L252 444z"/>
<path style="fill:#e5a1b6; stroke:none;" d="M242 445L243 446L242 445z"/>
<path style="fill:#f0c7d3; stroke:none;" d="M251 445L252 446L251 445z"/>
<path style="fill:#da7595; stroke:none;" d="M244 446L245 447L244 446z"/>
<path style="fill:#e5a1b6; stroke:none;" d="M249 446L250 447L249 446z"/>
<path style="fill:#f0c7d3; stroke:none;" d="M245 447L246 448L245 447z"/>
<path style="fill:#da7595; stroke:none;" d="M246 447L247 448L246 447z"/>
<path style="fill:#e5a1b6; stroke:none;" d="M247 447L248 448L247 447z"/>
</svg>
