<svg width="18" height="18" viewBox="0 0 18 18" fill="none" xmlns="http://www.w3.org/2000/svg">
<g clip-path="url(#clip0_418_1386)">
<path d="M16.3125 3.375C16.4617 3.375 16.6048 3.43426 16.7102 3.53975C16.8157 3.64524 16.875 3.78832 16.875 3.9375V14.0625C16.875 14.2117 16.8157 14.3548 16.7102 14.4602C16.6048 14.5657 16.4617 14.625 16.3125 14.625H1.6875C1.53832 14.625 1.39524 14.5657 1.28975 14.4602C1.18426 14.3548 1.125 14.2117 1.125 14.0625V3.9375C1.125 3.78832 1.18426 3.64524 1.28975 3.53975C1.39524 3.43426 1.53832 3.375 1.6875 3.375H16.3125ZM1.6875 2.25C1.23995 2.25 0.810725 2.42779 0.494257 2.74426C0.17779 3.06072 0 3.48995 0 3.9375L0 14.0625C0 14.5101 0.17779 14.9393 0.494257 15.2557C0.810725 15.5722 1.23995 15.75 1.6875 15.75H16.3125C16.7601 15.75 17.1893 15.5722 17.5057 15.2557C17.8222 14.9393 18 14.5101 18 14.0625V3.9375C18 3.48995 17.8222 3.06072 17.5057 2.74426C17.1893 2.42779 16.7601 2.25 16.3125 2.25H1.6875Z" fill="#5C95FF"/>
<path d="M5.625 9C5.625 8.85082 5.68426 8.70774 5.78975 8.60225C5.89524 8.49676 6.03832 8.4375 6.1875 8.4375H14.0625C14.2117 8.4375 14.3548 8.49676 14.4602 8.60225C14.5657 8.70774 14.625 8.85082 14.625 9C14.625 9.14918 14.5657 9.29226 14.4602 9.39775C14.3548 9.50324 14.2117 9.5625 14.0625 9.5625H6.1875C6.03832 9.5625 5.89524 9.50324 5.78975 9.39775C5.68426 9.29226 5.625 9.14918 5.625 9ZM5.625 6.1875C5.625 6.03832 5.68426 5.89524 5.78975 5.78975C5.89524 5.68426 6.03832 5.625 6.1875 5.625H14.0625C14.2117 5.625 14.3548 5.68426 14.4602 5.78975C14.5657 5.89524 14.625 6.03832 14.625 6.1875C14.625 6.33668 14.5657 6.47976 14.4602 6.58525C14.3548 6.69074 14.2117 6.75 14.0625 6.75H6.1875C6.03832 6.75 5.89524 6.69074 5.78975 6.58525C5.68426 6.47976 5.625 6.33668 5.625 6.1875ZM5.625 11.8125C5.625 11.6633 5.68426 11.5202 5.78975 11.4148C5.89524 11.3093 6.03832 11.25 6.1875 11.25H14.0625C14.2117 11.25 14.3548 11.3093 14.4602 11.4148C14.5657 11.5202 14.625 11.6633 14.625 11.8125C14.625 11.9617 14.5657 12.1048 14.4602 12.2102C14.3548 12.3157 14.2117 12.375 14.0625 12.375H6.1875C6.03832 12.375 5.89524 12.3157 5.78975 12.2102C5.68426 12.1048 5.625 11.9617 5.625 11.8125ZM4.5 6.1875C4.5 6.33668 4.44074 6.47976 4.33525 6.58525C4.22976 6.69074 4.08668 6.75 3.9375 6.75C3.78832 6.75 3.64524 6.69074 3.53975 6.58525C3.43426 6.47976 3.375 6.33668 3.375 6.1875C3.375 6.03832 3.43426 5.89524 3.53975 5.78975C3.64524 5.68426 3.78832 5.625 3.9375 5.625C4.08668 5.625 4.22976 5.68426 4.33525 5.78975C4.44074 5.89524 4.5 6.03832 4.5 6.1875ZM4.5 9C4.5 9.14918 4.44074 9.29226 4.33525 9.39775C4.22976 9.50324 4.08668 9.5625 3.9375 9.5625C3.78832 9.5625 3.64524 9.50324 3.53975 9.39775C3.43426 9.29226 3.375 9.14918 3.375 9C3.375 8.85082 3.43426 8.70774 3.53975 8.60225C3.64524 8.49676 3.78832 8.4375 3.9375 8.4375C4.08668 8.4375 4.22976 8.49676 4.33525 8.60225C4.44074 8.70774 4.5 8.85082 4.5 9ZM4.5 11.8125C4.5 11.9617 4.44074 12.1048 4.33525 12.2102C4.22976 12.3157 4.08668 12.375 3.9375 12.375C3.78832 12.375 3.64524 12.3157 3.53975 12.2102C3.43426 12.1048 3.375 11.9617 3.375 11.8125C3.375 11.6633 3.43426 11.5202 3.53975 11.4148C3.64524 11.3093 3.78832 11.25 3.9375 11.25C4.08668 11.25 4.22976 11.3093 4.33525 11.4148C4.44074 11.5202 4.5 11.6633 4.5 11.8125Z" fill="#5C95FF"/>
</g>
<defs>
<clipPath id="clip0_418_1386">
<rect width="18" height="18" fill="white"/>
</clipPath>
</defs>
</svg>
