<svg width="30" height="30" viewBox="0 0 30 30" fill="none" xmlns="http://www.w3.org/2000/svg">
<circle cx="15" cy="15" r="15" fill="#EDF0F4"/>
<path d="M19.5007 11.9874C19.1808 11.8034 18.7696 11.8034 18.404 11.9874L15.8453 13.5052L14.109 14.4711L11.596 15.9889C11.2761 16.1728 10.8649 16.1728 10.4993 15.9889L8.5346 14.793C8.21475 14.6091 7.98629 14.2411 7.98629 13.8272V11.5274C7.98629 11.1595 8.16906 10.7915 8.5346 10.5616L10.4993 9.41172C10.8192 9.22774 11.2304 9.22774 11.596 9.41172L13.5607 10.6076C13.8805 10.7915 14.109 11.1595 14.109 11.5734V13.0912L15.8453 12.0794V10.5156C15.8453 10.1476 15.6625 9.77967 15.297 9.5497L11.6416 7.38798C11.3218 7.20401 10.9106 7.20401 10.545 7.38798L6.7983 9.5957C6.43277 9.77967 6.25 10.1476 6.25 10.5156V14.839C6.25 15.207 6.43277 15.5749 6.7983 15.8049L10.4993 17.9666C10.8192 18.1506 11.2304 18.1506 11.596 17.9666L14.109 16.4948L15.8453 15.4829L18.3584 14.0111C18.6782 13.8272 19.0894 13.8272 19.455 14.0111L21.4197 15.161C21.7396 15.345 21.968 15.7129 21.968 16.1269V18.4266C21.968 18.7945 21.7852 19.1625 21.4197 19.3924L19.5007 20.5423C19.1808 20.7263 18.7696 20.7263 18.404 20.5423L16.4393 19.3924C16.1195 19.2085 15.891 18.8405 15.891 18.4266V16.9547L14.1547 17.9666V19.4844C14.1547 19.8524 14.3375 20.2203 14.703 20.4503L18.404 22.612C18.7239 22.796 19.1351 22.796 19.5007 22.612L23.2017 20.4503C23.5215 20.2663 23.75 19.8984 23.75 19.4844V15.115C23.75 14.747 23.5672 14.3791 23.2017 14.1491L19.5007 11.9874Z" fill="#8247E5"/>
</svg>
