<svg width="18" height="18" viewBox="0 0 18 18" fill="none" xmlns="http://www.w3.org/2000/svg">
<path d="M5.625 12.6562C7.02297 12.6562 8.15625 11.523 8.15625 10.125C8.15625 8.72703 7.02297 7.59375 5.625 7.59375C4.22703 7.59375 3.09375 8.72703 3.09375 10.125C3.09375 11.523 4.22703 12.6562 5.625 12.6562Z" stroke="#5C95FF" stroke-width="1.5" stroke-linecap="round" stroke-linejoin="round"/>
<path d="M12.375 7.03125C13.773 7.03125 14.9062 5.89797 14.9062 4.5C14.9062 3.10203 13.773 1.96875 12.375 1.96875C10.977 1.96875 9.84375 3.10203 9.84375 4.5C9.84375 5.89797 10.977 7.03125 12.375 7.03125Z" stroke="#5C95FF" stroke-width="1.5" stroke-linecap="round" stroke-linejoin="round"/>
<path d="M1.96875 16.0312C1.96875 14.9062 2.8125 12.6562 5.625 12.6562C8.4375 12.6562 9.28125 14.9062 9.28125 16.0312M8.71875 10.4062C8.71875 9.28125 9.5625 7.03125 12.375 7.03125C15.1875 7.03125 16.0312 9.28125 16.0312 10.4062H8.71875Z" stroke="#5C95FF" stroke-width="1.5" stroke-linecap="round" stroke-linejoin="round"/>
</svg>
