<svg width="18" height="18" viewBox="0 0 18 18" fill="none" xmlns="http://www.w3.org/2000/svg">
<path d="M8.17489 1.575L15.5991 2.63625L16.6596 10.0612L9.76564 16.9552C9.62499 17.0959 9.43426 17.1748 9.23539 17.1748C9.03651 17.1748 8.84578 17.0959 8.70514 16.9552L1.28014 9.53025C1.13953 9.3896 1.06055 9.19887 1.06055 9C1.06055 8.80112 1.13953 8.61039 1.28014 8.46975L8.17489 1.575ZM8.70514 3.1665L2.87089 9L9.23539 15.3637L15.0689 9.53025L14.2739 3.9615L8.70514 3.1665ZM10.2951 7.9395C10.0138 7.65804 9.85575 7.27633 9.85582 6.87836C9.85585 6.6813 9.8947 6.48618 9.97014 6.30414C10.0456 6.12209 10.1561 5.95669 10.2955 5.81737C10.4349 5.67806 10.6003 5.56755 10.7824 5.49218C10.9645 5.4168 11.1596 5.37802 11.3567 5.37805C11.7546 5.37812 12.1363 5.53629 12.4176 5.81775C12.699 6.09921 12.857 6.48091 12.857 6.87889C12.8569 7.27686 12.6987 7.65851 12.4173 7.93987C12.1358 8.22123 11.7541 8.37926 11.3561 8.37919C10.9581 8.37912 10.5765 8.22096 10.2951 7.9395Z" fill="#5C95FF"/>
</svg>
