<svg width="19" height="18" viewBox="0 0 19 18" fill="none" xmlns="http://www.w3.org/2000/svg">
<path d="M7.95581 13.5C9.28704 13.4997 10.5799 13.0541 11.6286 12.234L14.9256 15.531L15.9861 14.4705L12.6891 11.1735C13.5096 10.1247 13.9555 8.83158 13.9558 7.5C13.9558 4.19175 11.2641 1.5 7.95581 1.5C4.64756 1.5 1.95581 4.19175 1.95581 7.5C1.95581 10.8082 4.64756 13.5 7.95581 13.5ZM7.95581 3C10.4376 3 12.4558 5.01825 12.4558 7.5C12.4558 9.98175 10.4376 12 7.95581 12C5.47406 12 3.45581 9.98175 3.45581 7.5C3.45581 5.01825 5.47406 3 7.95581 3Z" fill="#828282"/>
</svg>
