<svg width="18" height="18" viewBox="0 0 18 18" fill="none" xmlns="http://www.w3.org/2000/svg">
<path d="M8.33333 7H9.66667V13H8.33333V7ZM7 1H11V2.33333H7V1Z" fill="#5C95FF"/>
<path d="M17 5.01457L16.0691 4.04793L14.594 5.59043C13.3865 4.13228 11.6883 3.21665 9.85204 3.0338C8.01581 2.85094 6.1828 3.41492 4.73386 4.60854C3.28492 5.80217 2.33145 7.53367 2.07157 9.44329C1.81168 11.3529 2.26536 13.2938 3.33834 14.8628C4.41132 16.4317 6.02109 17.508 7.83321 17.8681C9.64532 18.2282 11.5204 17.8444 13.069 16.7964C14.6175 15.7484 15.7204 14.1167 16.1484 12.2405C16.5765 10.3643 16.2968 8.3878 15.3676 6.7216L17 5.01457ZM9.13297 16.669C7.96601 16.669 6.82525 16.3071 5.85496 15.6292C4.88467 14.9512 4.12841 13.9876 3.68184 12.8602C3.23526 11.7327 3.11841 10.4922 3.34608 9.2953C3.57374 8.09844 4.13569 6.99905 4.96085 6.13616C5.78602 5.27327 6.83735 4.68564 7.98189 4.44757C9.12643 4.2095 10.3128 4.33168 11.3909 4.79867C12.469 5.26567 13.3905 6.05649 14.0389 7.07114C14.6872 8.08579 15.0332 9.2787 15.0332 10.499C15.0332 12.1354 14.4116 13.7048 13.3051 14.8619C12.1986 16.019 10.6978 16.669 9.13297 16.669Z" fill="#5C95FF"/>
</svg>
