<svg id="Layer_1" data-name="Layer 1" xmlns="http://www.w3.org/2000/svg" viewBox="0 0 2000 614"><defs><style>.cls-1{fill:#fff;}</style></defs><path class="cls-1" d="M249.41,559.7V470.88a5.46,5.46,0,0,1,0-2.78h60.81a5.69,5.69,0,0,1,2.53,0,3.69,3.69,0,0,1,0,1,15,15,0,0,1,0,2.12V559.7Z"/><path class="cls-1" d="M536.63,338.91V443.3l-2.35,1.54L510.48,459l-93.71,55.75-73,43.26a4.77,4.77,0,0,1-2,1,3.76,3.76,0,0,1,0-1.06V467.42c0-.86,1.31-1.15,2-1.63l18.74-11,70.75-41.91c8-4.61,15.83-9.61,23.7-14l1.78-1a2,2,0,0,0,.65-.66,2.08,2.08,0,0,0,.29-.88v-54.5a4.91,4.91,0,0,1,0-2.79h74.69A4.64,4.64,0,0,1,536.63,338.91Z"/><path class="cls-1" d="M459.31,275.09c0-.52,0-1,0-1.54V219.62c0-3.84,0-3.17-2.71-4.9L391,176.27l-47.41-28c-2.16-1.25-1.88-1.05-1.88-3.36V57.47a3.49,3.49,0,0,1,0-2.12,4.36,4.36,0,0,1,1.78.77l17,10.1L478.71,136l56.23,32.87c2.43,1.44,2.15,1.06,2.15,3.85V274.61h-1.31a10.55,10.55,0,0,1-1.59,0h-75Z"/><path class="cls-1" d="M221,466.85v91.79c-.75,0-1.22,0-1.69-.58l-19.58-11.63-66.35-39.21-75-44.7L28.25,444.64l-2.06-1.34V338.91a2.24,2.24,0,0,1,1,0H101a4.05,4.05,0,0,1,2.62,0,6.55,6.55,0,0,1,.28,3v52.48a22.25,22.25,0,0,0,0,2.31,1.91,1.91,0,0,0,.21.81,1.83,1.83,0,0,0,.54.63l1.41.77L195.52,452l23.62,14Z"/><path class="cls-1" d="M103.88,274.61H26.67a6.53,6.53,0,0,1,0-1.25,12.43,12.43,0,0,1,0-1.93V173.29c0-3.55,0-2.78,2.53-4.51l89.39-53.06,87.62-52.58L219,55.64l1.87-1a3.08,3.08,0,0,1,0,1,12.44,12.44,0,0,1,0,1.93v86.5c0,3.27,0,2.69-2.53,4.33L105.85,214.82c-2.9,1.73-2.72,1.15-2.72,4.71V272.3A5.38,5.38,0,0,1,103.88,274.61Z"/><path class="cls-1" d="M1398.07,87.76a6.79,6.79,0,0,0-.56,1.15,21.77,21.77,0,0,1-3.94,11.44,24.82,24.82,0,0,1-7.31,7.44,24.19,24.19,0,0,1-9.65,3.71,27.45,27.45,0,0,1-15.27-1.25,24.33,24.33,0,0,1-10.67-7.34A25.21,25.21,0,0,1,1345.13,91a30.28,30.28,0,0,1,.93-15.29,25.6,25.6,0,0,1,7.32-11.25,24.61,24.61,0,0,1,11.89-5.86,28.4,28.4,0,0,1,15.74.87,24.53,24.53,0,0,1,10.76,7.32,25.44,25.44,0,0,1,5.64,11.9,11.18,11.18,0,0,1,0,1.83,2.6,2.6,0,0,0,.57,1.83Z"/><path class="cls-1" d="M1118.91,260.39a4.86,4.86,0,0,1-2.43.48H964.2a2.15,2.15,0,0,0-.23,1,2.09,2.09,0,0,0,.23,1,66.09,66.09,0,0,0,11.15,28.45,51.35,51.35,0,0,0,26.81,19.23,71.25,71.25,0,0,0,13.58,2.59,72.85,72.85,0,0,0,12.18,0,68.5,68.5,0,0,0,18.75-3.45,48.69,48.69,0,0,0,25.2-19.9l2-3a2.11,2.11,0,0,1,1.78.58l15.28,7,16.21,7.4,2.15,1a7.83,7.83,0,0,1-.47,1.25,91,91,0,0,1-49.1,41.05,104.52,104.52,0,0,1-17.15,4.23,128.44,128.44,0,0,1-26.42,1.63A94.16,94.16,0,0,1,961,331.35a98.07,98.07,0,0,1-33.84-48.66,113.15,113.15,0,0,1-4.31-20.28,116.9,116.9,0,0,1-1-23.65,103.16,103.16,0,0,1,20.43-58.44,93.93,93.93,0,0,1,40-31,101,101,0,0,1,23.05-6.64,108,108,0,0,1,21.55-1.44,68.14,68.14,0,0,1,9.37.58,86,86,0,0,1,41.63,14.94,89.08,89.08,0,0,1,29.22,33.89,107.18,107.18,0,0,1,9.84,29.31,147,147,0,0,1,2.34,31.63v6.05A9.45,9.45,0,0,1,1118.91,260.39ZM964.3,226.84H1076a10,10,0,0,0,3.37,0,5.36,5.36,0,0,0,0-3,38.16,38.16,0,0,0-.66-4.52,46,46,0,0,0-7.4-18.61,44.71,44.71,0,0,0-14.52-13.5,58.63,58.63,0,0,0-27.55-8.17,83,83,0,0,0-14.62,0,73.09,73.09,0,0,0-12.84,2.69,51.8,51.8,0,0,0-28.11,20,64.76,64.76,0,0,0-9.37,23.64A8.65,8.65,0,0,0,964.3,226.84Z"/><path class="cls-1" d="M1316.26,64.79c-4.78,10.57-9.37,21.14-14.25,31.71a12.8,12.8,0,0,1-.84,1.35l-1.31-1a56.94,56.94,0,0,0-21.28-11.44,40.79,40.79,0,0,0-11.24-1.73,41.64,41.64,0,0,0-17.15,3,29.19,29.19,0,0,0-10.43,7.16,30.08,30.08,0,0,0-6.53,11,43.52,43.52,0,0,0-2.62,13.84v28.07a3.25,3.25,0,0,0,0,2.3,3,3,0,0,0,1,0h67.75a6.42,6.42,0,0,1,2.62,0v34a4.87,4.87,0,0,1,0,2.4,3,3,0,0,1-2.06,0h-69.34a5,5,0,0,0,0,1.54V347.19c0,.83,0,1.66,0,2.5s0,1.05-1.13,1.15H1192a5.69,5.69,0,0,1-2.53,0,4.7,4.7,0,0,0,0-1.06V187.53c0-.77,0-1.06-1-1.06h-32.89a7.67,7.67,0,0,1-2.53,0v-1.15a6.93,6.93,0,0,1,0-1.44V152.16a5.12,5.12,0,0,1,0-2.4,2.9,2.9,0,0,1,2,0h33.45c.66,0,.94,0,1-1.16V117.75a81.08,81.08,0,0,1,6.47-30.86,61.36,61.36,0,0,1,33-33.35,73.48,73.48,0,0,1,18.74-5.38,93.75,93.75,0,0,1,21.37-.68,84.59,84.59,0,0,1,41.7,13.08,48,48,0,0,1,4.49,3.26Z"/><path class="cls-1" d="M800.41,308a1.27,1.27,0,0,1,.56-1.06c.84-3.74,1.59-7.49,2.44-11.24a22,22,0,0,1,1.12-3.56l50.88-125.82L861,152.16l.93-2a6,6,0,0,1,2.53,0h42.55a3.8,3.8,0,0,1-.47,2.12c-2.06,4.9-4.22,9.61-6.28,14.8q-18.74,44.51-37.48,89.2t-38.7,92.08l-1.32,2.89H778.39a7,7,0,0,1-1.22-2.12c-4.78-11.44-9.37-22.88-14.53-34.31L715.13,202.43C708,185.71,701,168.89,693.86,152.16a2.5,2.5,0,0,0-.75-2H740l1,2.31q9.27,23.79,18.74,47.48l36.54,92.37a38,38,0,0,1,1.78,6.44c.57,2.69,1.13,5.48,1.79,8.17A2.14,2.14,0,0,0,800.41,308Z"/><path class="cls-1" d="M1351,350.74a9.2,9.2,0,0,1,0-1.05V150.33a2.51,2.51,0,0,1,0-.67h40.67a8.69,8.69,0,0,1,0,1.25V348a22.06,22.06,0,0,1,0,2.3.8.8,0,0,1-.75.77h-40.3Z"/><path class="cls-1" d="M313,145.71H249.78a4.35,4.35,0,0,1,0-1.44,10,10,0,0,1,0-1.73v-85a6.26,6.26,0,0,1,0-3,5.24,5.24,0,0,1,1.12,0H310a6.18,6.18,0,0,1,2.9,0,4.5,4.5,0,0,1,0,1.16,8.88,8.88,0,0,1,0,1.63v85.36A8.08,8.08,0,0,1,313,145.71Z"/><path class="cls-1" d="M1459.85,353.79a8.29,8.29,0,0,1-6.14-2.17,9.12,9.12,0,0,1-2.16-6.14V109.71a8.31,8.31,0,0,1,2.16-6.14,7.64,7.64,0,0,1,6.14-2.53h16.61q4.33,0,6.5,2.17a7.9,7.9,0,0,1,2.53,2.89l119.87,184.14V109.71a8.32,8.32,0,0,1,2.17-6.14,7.63,7.63,0,0,1,6.14-2.53H1631a8.64,8.64,0,0,1,8.67,8.67V345.12a8.37,8.37,0,0,1-2.53,6.14,7.22,7.22,0,0,1-5.78,2.53H1614a8.29,8.29,0,0,1-6.14-2.17c-1.2-1.44-2-2.4-2.53-2.89L1485.85,166.39V345.48a8.06,8.06,0,0,1-8.67,8.31Zm264.79,0a7.55,7.55,0,0,1-8.31-8.31V194.92h-30.69a7.54,7.54,0,0,1-8.3-8.31V174.34a7.82,7.82,0,0,1,2.16-5.78,8.4,8.4,0,0,1,6.14-2.53h30.69V148q0-18.42,6.14-32.14A45,45,0,0,1,1742,94.18q13.72-7.58,36.47-7.58h21.67a7.2,7.2,0,0,1,5.77,2.53,7.78,7.78,0,0,1,2.17,5.77v12.28a9.09,9.09,0,0,1-2.17,6.14,7.81,7.81,0,0,1-5.77,2.16h-20.95q-17,0-23.11,9-6.13,8.67-6.14,25.27V166h46.58a7.24,7.24,0,0,1,5.78,2.53,7.78,7.78,0,0,1,2.17,5.78v12.27a9.08,9.08,0,0,1-2.17,6.14,7.78,7.78,0,0,1-5.78,2.17h-46.58V345.48a8.36,8.36,0,0,1-2.52,6.14,7.8,7.8,0,0,1-5.78,2.17Zm185.14,0q-20.22,0-32.86-7.58a45.92,45.92,0,0,1-18.41-22q-5.77-14.44-5.78-33.94V194.92h-28.16a7.55,7.55,0,0,1-8.31-8.31V174.34a7.82,7.82,0,0,1,2.17-5.78,8.39,8.39,0,0,1,6.14-2.53h28.16v-60.3a7.78,7.78,0,0,1,2.17-5.77,8.35,8.35,0,0,1,6.14-2.53h17a8.66,8.66,0,0,1,8.3,8.3V166h44.77a8.66,8.66,0,0,1,8.31,8.31v12.27a8.37,8.37,0,0,1-2.53,6.14,7.78,7.78,0,0,1-5.78,2.17h-44.77v92.79q0,17,5.78,26.72t20.58,9.75h22a8.66,8.66,0,0,1,8.3,8.31v13a8.37,8.37,0,0,1-2.53,6.14,7.78,7.78,0,0,1-5.77,2.17Z"/><path class="cls-1" d="M847.92,397.62V524.83H835V418.27L791,524.83H779.34L735.09,418.64V524.83H722V397.62h15.3l47.94,111.17L832.8,397.62Z"/><path class="cls-1" d="M955.68,430.81a40.12,40.12,0,0,1,14.84,21V424.17h12.72V524.83H970.52V497.18a40.16,40.16,0,0,1-14.84,21q-10.8,7.92-26.09,7.92a47.7,47.7,0,0,1-24.43-6.27,42.73,42.73,0,0,1-16.78-18q-6-11.7-6-27.38,0-15.86,6-27.56a42.44,42.44,0,0,1,16.69-17.88,48.08,48.08,0,0,1,24.52-6.18Q944.89,422.88,955.68,430.81Zm-50,14.29q-10.23,10.78-10.23,29.4t10.23,29.41q10.24,10.79,27.2,10.78a37.63,37.63,0,0,0,19.26-5,34.93,34.93,0,0,0,13.46-14.1,48,48,0,0,0,0-42.22,35.06,35.06,0,0,0-13.46-14.1,37.63,37.63,0,0,0-19.26-5Q915.95,434.31,905.71,445.1Z"/><path class="cls-1" d="M1049.6,428.23q9.78-5.89,23.79-5.9v14h-4.24q-14.57,0-24.15,7.84t-9.59,25.53v55.12h-13.09V424.17h13.09V445A34,34,0,0,1,1049.6,428.23Z"/><path class="cls-1" d="M1155.43,524.83l-40.75-46.09v46.09h-13.09V388.41h13.09v80l40-44.25h16L1124.45,474,1172,524.83Z"/><path class="cls-1" d="M1265.12,508.61a27.41,27.41,0,0,0,11.06-18.44h13.64a41,41,0,0,1-15.3,26q-12.54,9.95-31.71,10a51.78,51.78,0,0,1-25.53-6.17,43.19,43.19,0,0,1-17.42-17.89q-6.27-11.7-6.27-27.56t6.27-27.56a43.22,43.22,0,0,1,17.42-17.88,51.79,51.79,0,0,1,25.53-6.18q14.75,0,25.54,6.18a42,42,0,0,1,16.4,16.5,46.25,46.25,0,0,1,5.63,22.49,55.16,55.16,0,0,1-.74,9.4h-83.33q.18,12.72,5.25,21.3a31.67,31.67,0,0,0,13.18,12.62,38.57,38.57,0,0,0,17.52,4.06Q1255.9,515.43,1265.12,508.61Zm-40.19-71.16a32,32,0,0,0-13.18,12.44q-5.09,8.39-5.44,20.93h71.16q.73-12.36-4-20.84a30.18,30.18,0,0,0-12.91-12.53,39,39,0,0,0-17.7-4.06A39.35,39.35,0,0,0,1224.93,437.45Z"/><path class="cls-1" d="M1370.39,513.4v11.43h-12q-14.58,0-21.76-6.91t-7.19-23.32V435.42h-15.3V424.17h15.3V398.73h13.09v25.44h27.65v11.25h-27.65v59.36q0,10.7,3.87,14.66t13.64,4Z"/><path class="cls-1" d="M1480.91,429.06a42.53,42.53,0,0,1,16.59,17.88q6,11.71,6,27.56,0,15.67-6,27.38a42.83,42.83,0,0,1-16.68,18,47.21,47.21,0,0,1-24.34,6.27q-15.48,0-26.18-7.92a40.27,40.27,0,0,1-14.74-21V572.4h-12.91V424.17h12.91v27.66a40.23,40.23,0,0,1,14.74-21q10.7-7.92,26.18-7.93A47.62,47.62,0,0,1,1480.91,429.06Zm-47.2,10.23a34.43,34.43,0,0,0-13.36,14.1,48.91,48.91,0,0,0,0,42.22,34.31,34.31,0,0,0,13.36,14.1,37.67,37.67,0,0,0,19.27,5q17.14,0,27.29-10.78t10.14-29.41q0-18.62-10.14-29.4T1453,434.31A37.67,37.67,0,0,0,1433.71,439.29Z"/><path class="cls-1" d="M1550.87,388.41V524.83h-13.09V388.41Z"/><path class="cls-1" d="M1658.45,430.81a40.12,40.12,0,0,1,14.84,21V424.17H1686V524.83h-12.72V497.18a40.16,40.16,0,0,1-14.84,21q-10.79,7.92-26.09,7.92a47.7,47.7,0,0,1-24.43-6.27,42.73,42.73,0,0,1-16.78-18q-6-11.7-6-27.38,0-15.86,6-27.56a42.44,42.44,0,0,1,16.69-17.88,48.11,48.11,0,0,1,24.52-6.18Q1647.66,422.88,1658.45,430.81Zm-50,14.29q-10.23,10.78-10.23,29.4t10.23,29.41q10.24,10.79,27.2,10.78a37.63,37.63,0,0,0,19.26-5,34.93,34.93,0,0,0,13.46-14.1,48,48,0,0,0,0-42.22,35.06,35.06,0,0,0-13.46-14.1,37.63,37.63,0,0,0-19.26-5Q1618.71,434.31,1608.48,445.1Z"/><path class="cls-1" d="M1801.32,433q12.63,10.14,15.4,26.92h-13.46A28.68,28.68,0,0,0,1792,441q-9.21-6.92-22.67-6.91a37.26,37.26,0,0,0-18,4.42,32.11,32.11,0,0,0-13.09,13.55q-4.89,9.13-4.88,22.4t4.88,22.4a32.06,32.06,0,0,0,13.09,13.55,37.27,37.27,0,0,0,18,4.43q13.46,0,22.67-6.92a28.66,28.66,0,0,0,11.25-18.89h13.46q-2.78,16.77-15.4,26.91t-31.8,10.14A51.76,51.76,0,0,1,1744,520a43.27,43.27,0,0,1-17.43-17.89q-6.27-11.7-6.26-27.56t6.26-27.56A43.3,43.3,0,0,1,1744,429.06a51.76,51.76,0,0,1,25.53-6.18Q1788.69,422.88,1801.32,433Z"/><path class="cls-1" d="M1917.74,508.61a27.38,27.38,0,0,0,11.06-18.44h13.65a41,41,0,0,1-15.31,26q-12.54,9.95-31.7,10A51.82,51.82,0,0,1,1869.9,520a43.25,43.25,0,0,1-17.42-17.89q-6.27-11.7-6.27-27.56t6.27-27.56a43.28,43.28,0,0,1,17.42-17.88,51.83,51.83,0,0,1,25.54-6.18q14.74,0,25.53,6.18a42,42,0,0,1,16.41,16.5,46.35,46.35,0,0,1,5.62,22.49,55.16,55.16,0,0,1-.74,9.4h-83.33q.18,12.72,5.26,21.3a31.61,31.61,0,0,0,13.18,12.62,38.5,38.5,0,0,0,17.51,4.06Q1908.53,515.43,1917.74,508.61Zm-40.19-71.16a32,32,0,0,0-13.18,12.44q-5.07,8.39-5.44,20.93h71.16q.73-12.36-4-20.84a30.18,30.18,0,0,0-12.91-12.53,39,39,0,0,0-17.69-4.06A39.36,39.36,0,0,0,1877.55,437.45Z"/></svg>