<svg id="Layer_1" data-name="Layer 1" xmlns="http://www.w3.org/2000/svg" viewBox="0 0 1445 614"><defs><style>.cls-1{fill:#fff;}</style></defs><path class="cls-1" d="M1398.07,195.56a7.28,7.28,0,0,0-.56,1.16,21.8,21.8,0,0,1-3.94,11.44,24.82,24.82,0,0,1-7.31,7.44,24.34,24.34,0,0,1-9.65,3.71,27.45,27.45,0,0,1-15.27-1.25,24.41,24.41,0,0,1-10.67-7.34,25.2,25.2,0,0,1-5.54-11.89,30.24,30.24,0,0,1,.93-15.28,25.63,25.63,0,0,1,7.32-11.26,24.69,24.69,0,0,1,11.89-5.85,28.22,28.22,0,0,1,15.74.87,24.53,24.53,0,0,1,10.76,7.32,25.44,25.44,0,0,1,5.64,11.9,11.18,11.18,0,0,1,0,1.83,2.69,2.69,0,0,0,.11,1,2.51,2.51,0,0,0,.46.85Z"/><path class="cls-1" d="M1118.91,368.2a5,5,0,0,1-2.43.48H964.2a2.09,2.09,0,0,0-.23,1,2.15,2.15,0,0,0,.23,1,66.14,66.14,0,0,0,11.15,28.45,51.35,51.35,0,0,0,26.81,19.23,69.1,69.1,0,0,0,25.76,2.59,68.52,68.52,0,0,0,18.75-3.46,48.59,48.59,0,0,0,25.2-19.9l2-3a2.11,2.11,0,0,1,1.78.58l15.28,7,16.21,7.4,2.15,1a7.83,7.83,0,0,1-.47,1.25,91,91,0,0,1-49.1,41,103.52,103.52,0,0,1-17.15,4.23,128.44,128.44,0,0,1-26.42,1.64A94.17,94.17,0,0,1,961,439.15a98,98,0,0,1-33.84-48.65,113.15,113.15,0,0,1-4.31-20.28,116.94,116.94,0,0,1-1-23.65,103.16,103.16,0,0,1,20.43-58.44,94,94,0,0,1,40-31.05,100.94,100.94,0,0,1,23.05-6.63,108,108,0,0,1,21.55-1.44,66.6,66.6,0,0,1,9.37.57,86.08,86.08,0,0,1,41.63,14.95,89,89,0,0,1,29.22,33.88,107.13,107.13,0,0,1,9.84,29.32,147,147,0,0,1,2.34,31.63v6.05A9.52,9.52,0,0,1,1118.91,368.2ZM964.3,334.65H1076a10,10,0,0,0,3.37,0,5.39,5.39,0,0,0,0-3,38.16,38.16,0,0,0-.66-4.52,46,46,0,0,0-7.4-18.6,44.71,44.71,0,0,0-14.52-13.5,58.63,58.63,0,0,0-27.55-8.17,83,83,0,0,0-14.62,0,73.09,73.09,0,0,0-12.84,2.69,51.84,51.84,0,0,0-28.11,20,64.88,64.88,0,0,0-9.37,23.65A8.66,8.66,0,0,0,964.3,334.65Z"/><path class="cls-1" d="M1316.26,172.59c-4.78,10.57-9.37,21.15-14.25,31.72a12.8,12.8,0,0,1-.84,1.35l-1.31-1a56.66,56.66,0,0,0-21.28-11.44,40.79,40.79,0,0,0-11.24-1.73,41.64,41.64,0,0,0-17.15,3,29.07,29.07,0,0,0-10.43,7.16,30,30,0,0,0-6.53,11,43.58,43.58,0,0,0-2.62,13.85v28.06a3.28,3.28,0,0,0,0,2.31,3.56,3.56,0,0,0,1,0h67.75a6.09,6.09,0,0,1,2.62,0v34a4.87,4.87,0,0,1,0,2.4,3.16,3.16,0,0,1-2.06,0h-69.34a5,5,0,0,0,0,1.54V455c0,.84,0,1.67,0,2.5s0,1.06-1.13,1.16H1192a5.69,5.69,0,0,1-2.53,0,4.7,4.7,0,0,0,0-1.06V295.34c0-.77,0-1.06-1-1.06h-32.89a7.67,7.67,0,0,1-2.53,0v-1.15a6.93,6.93,0,0,1,0-1.44V260a5.17,5.17,0,0,1,0-2.41,2.9,2.9,0,0,1,2,0h33.45c.66,0,.94,0,1-1.15V225.55a81.07,81.07,0,0,1,6.47-30.85,61.33,61.33,0,0,1,33-33.35,73.1,73.1,0,0,1,18.74-5.39,93.74,93.74,0,0,1,21.37-.67,84.68,84.68,0,0,1,41.7,13.07,48.11,48.11,0,0,1,4.49,3.27Z"/><path class="cls-1" d="M800.41,415.78a1.27,1.27,0,0,1,.56-1.06c.84-3.75,1.59-7.5,2.44-11.25a22.16,22.16,0,0,1,1.12-3.55L855.41,274.1,861,260l.93-2a5.69,5.69,0,0,1,2.53,0h42.55a3.77,3.77,0,0,1-.47,2.11c-2.06,4.9-4.22,9.61-6.28,14.8q-18.74,44.5-37.48,89.21t-38.7,92.08L822.8,459H778.39a6.85,6.85,0,0,1-1.22-2.11c-4.78-11.44-9.37-22.88-14.53-34.32L715.13,310.24C708,293.51,701,276.69,693.86,260a2.5,2.5,0,0,0-.75-2H740l1,2.3q9.27,23.79,18.74,47.49l36.54,92.37a37.69,37.69,0,0,1,1.78,6.44c.57,2.69,1.13,5.48,1.79,8.17A2.14,2.14,0,0,0,800.41,415.78Z"/><path class="cls-1" d="M1351,458.55a9.37,9.37,0,0,1,0-1.06V258.14a2.51,2.51,0,0,1,0-.67h40.67a8.69,8.69,0,0,1,0,1.25v197a22.25,22.25,0,0,1,0,2.31.8.8,0,0,1-.75.77h-40.3Z"/><path class="cls-1" d="M249.41,559.64V470.83a5.5,5.5,0,0,1,0-2.79h60.81a6,6,0,0,1,2.53,0,3.76,3.76,0,0,1,0,1.06,14.86,14.86,0,0,1,0,2.11v88.43Z"/><path class="cls-1" d="M536.63,338.86V443.24l-2.35,1.54-23.8,14.13-93.71,55.75-73,43.25a4.79,4.79,0,0,1-2,1,3.76,3.76,0,0,1,0-1.06V467.37c0-.87,1.31-1.15,2-1.64l18.74-11,70.75-41.91c8-4.62,15.83-9.61,23.7-14l1.78-1a1.84,1.84,0,0,0,.65-.65,2.13,2.13,0,0,0,.29-.88V341.83a4.87,4.87,0,0,1,0-2.78h74.69A4.52,4.52,0,0,1,536.63,338.86Z"/><path class="cls-1" d="M459.31,275c0-.51,0-1,0-1.54V219.57c0-3.84,0-3.17-2.71-4.9L391,176.22l-47.41-28c-2.16-1.25-1.88-1.06-1.88-3.37V57.41a3.46,3.46,0,0,1,0-2.11,4.23,4.23,0,0,1,1.78.77l17,10.09L478.71,136l56.23,32.87c2.43,1.44,2.15,1.06,2.15,3.84V274.55h-1.31a8.45,8.45,0,0,1-1.59,0h-75Z"/><path class="cls-1" d="M221,466.79v91.8c-.75,0-1.22,0-1.69-.58l-19.58-11.63-66.35-39.22-75-44.69L28.25,444.59l-2.06-1.35V338.86a2,2,0,0,1,1,0H101a4.05,4.05,0,0,1,2.62,0,6.53,6.53,0,0,1,.28,3v52.48a22.06,22.06,0,0,0,0,2.3,2,2,0,0,0,.21.82,1.93,1.93,0,0,0,.54.63l1.41.76,89.49,53.06,23.62,14Z"/><path class="cls-1" d="M103.88,274.55H26.67a6.53,6.53,0,0,1,0-1.25,12.31,12.31,0,0,1,0-1.92V173.24c0-3.56,0-2.79,2.53-4.52l89.39-53.06,87.62-52.57L219,55.59l1.87-1.06a3.14,3.14,0,0,1,0,1.06,12.31,12.31,0,0,1,0,1.92V144c0,3.27,0,2.69-2.53,4.32L105.85,214.76c-2.9,1.73-2.72,1.16-2.72,4.71v52.77A5.38,5.38,0,0,1,103.88,274.55Z"/><path class="cls-1" d="M313,145.65H249.78a4.35,4.35,0,0,1,0-1.44,10,10,0,0,1,0-1.73v-85a6.26,6.26,0,0,1,0-3,5.24,5.24,0,0,1,1.12,0H310a6.18,6.18,0,0,1,2.9,0,4.43,4.43,0,0,1,0,1.15,9,9,0,0,1,0,1.64v85.35A8.08,8.08,0,0,1,313,145.65Z"/></svg>