<svg width="109" height="29" viewBox="0 0 109 29" fill="none" xmlns="http://www.w3.org/2000/svg">
<g clip-path="url(#clip0_104_1964)">
<path d="M12.3797 27.9947V23.0751C12.3669 23.0245 12.3669 22.9713 12.3797 22.9207H12.442H15.7483C15.7945 22.9105 15.8423 22.9105 15.8885 22.9207C15.8914 22.9401 15.8914 22.9599 15.8885 22.9793C15.891 23.0183 15.891 23.0574 15.8885 23.0964V27.8456C15.8885 27.8988 15.8885 27.9467 15.8885 27.9947H12.3797Z" fill="white"/>
<path d="M76.0051 7.85319C75.9926 7.87336 75.9822 7.89477 75.9739 7.91708C75.9623 8.1454 75.8866 8.3654 75.7559 8.55066C75.6508 8.7159 75.5127 8.85639 75.3508 8.96286C75.1888 9.06932 75.0067 9.13933 74.8165 9.16826C74.5336 9.226 74.2407 9.20203 73.9704 9.09905C73.7415 9.02017 73.5375 8.87977 73.3796 8.69248C73.2216 8.50519 73.1156 8.27786 73.0724 8.03421C73.0168 7.75226 73.0347 7.46024 73.1243 7.18766C73.2024 6.94624 73.3424 6.73083 73.5296 6.56407C73.7168 6.39731 73.9444 6.28535 74.1884 6.23995C74.4778 6.17317 74.7796 6.18975 75.0604 6.28787C75.2906 6.36615 75.4962 6.50616 75.656 6.69339C75.8157 6.88062 75.9237 7.10826 75.9687 7.35271C75.9713 7.38638 75.9713 7.4202 75.9687 7.45387C75.9672 7.47201 75.9691 7.49027 75.9745 7.50763C75.9798 7.52499 75.9885 7.5411 75.9999 7.55503L76.0051 7.85319Z" fill="white"/>
<path d="M60.5425 17.4155C60.5004 17.4357 60.454 17.4449 60.4076 17.4421H52.2169H51.9729C51.9643 17.4585 51.9598 17.4767 51.9598 17.4953C51.9598 17.5139 51.9643 17.5322 51.9729 17.5486C52.0535 18.1169 52.2653 18.6572 52.5906 19.1245C52.9588 19.6362 53.4802 20.0102 54.0751 20.1894C54.3211 20.2613 54.573 20.3094 54.8277 20.3331C55.0523 20.3518 55.278 20.3518 55.5025 20.3331C55.8554 20.318 56.2047 20.2535 56.5406 20.1415C57.1137 19.9458 57.6057 19.5574 57.9369 19.0394L58.0459 18.8743C58.0822 18.8743 58.1134 18.8743 58.1445 18.9063L58.9906 19.2949L59.8885 19.7049L60.0079 19.7581C60.001 19.7819 59.9924 19.805 59.982 19.8273C59.3719 20.8964 58.4061 21.7037 57.2621 22.1008C56.9524 22.2057 56.6346 22.2841 56.3122 22.335C55.8285 22.4155 55.3382 22.4459 54.8485 22.4256C53.7467 22.3998 52.6802 22.0224 51.7973 21.3458C50.9144 20.6692 50.2592 19.7272 49.9227 18.6507C49.809 18.2847 49.7291 17.9086 49.6839 17.5273C49.6209 17.0939 49.6018 16.655 49.6268 16.2175C49.6655 15.0438 50.0611 13.9119 50.7584 12.9804C51.331 12.2112 52.0973 11.6166 52.9747 11.2607C53.385 11.0878 53.8135 10.9645 54.2516 10.8933C54.646 10.8268 55.0459 10.8001 55.4454 10.8135C55.619 10.812 55.7924 10.8226 55.9645 10.8454C56.7894 10.9147 57.5832 11.1997 58.2701 11.6732C58.9571 12.1467 59.5143 12.7929 59.8885 13.5501C60.1476 14.0607 60.3312 14.608 60.4335 15.174C60.5399 15.7511 60.5834 16.3386 60.5633 16.9257C60.5633 17.0375 60.5633 17.1493 60.5633 17.2611C60.5633 17.3729 60.5477 17.3676 60.5425 17.4155ZM51.9781 15.5573H52.0975H57.3763H58.1653C58.2271 15.5678 58.2903 15.5678 58.3521 15.5573C58.3676 15.5035 58.3676 15.4462 58.3521 15.3923C58.3451 15.3082 58.333 15.2246 58.3158 15.142C58.2558 14.7713 58.1156 14.4192 57.9054 14.1114C57.6952 13.8036 57.4204 13.5482 57.1012 13.3638C56.6359 13.0879 56.1122 12.9326 55.5752 12.9112C55.3058 12.8872 55.0349 12.8872 54.7655 12.9112C54.5246 12.9393 54.2867 12.9892 54.0544 13.0603C53.4281 13.238 52.8791 13.6284 52.4972 14.1677C52.2401 14.5641 52.0636 15.0095 51.9781 15.4775C51.976 15.504 51.976 15.5308 51.9781 15.5573Z" fill="white"/>
<path d="M28.2886 15.765C28.2886 15.8555 28.2886 21.382 28.2886 21.5471L28.1588 21.6323L26.8404 22.4149L21.6499 25.503L17.6064 27.8988C17.5746 27.925 17.5373 27.9432 17.4974 27.9521C17.495 27.9326 17.495 27.913 17.4974 27.8935V22.8834C17.4974 22.8355 17.5701 22.8196 17.6064 22.7929L18.6445 22.186L22.5634 19.8646C23.0046 19.6091 23.4406 19.3322 23.8766 19.0873L23.9752 19.034C23.9898 19.025 24.002 19.0126 24.011 18.9978C24.0201 18.983 24.0256 18.9662 24.0271 18.9489V15.93C24.012 15.8797 24.012 15.8259 24.0271 15.7756H24.0739H28.164C28.2041 15.7619 28.2468 15.7583 28.2886 15.765Z" fill="white"/>
<path d="M24.0063 12.2297C24.0047 12.2014 24.0047 12.1729 24.0063 12.1445V9.15766C24.0063 8.94469 24.0063 8.98196 23.8558 8.88613L20.2224 6.75645L17.596 5.2071C17.4766 5.13789 17.4921 5.14853 17.4921 5.02075V0.175726C17.4799 0.137697 17.4799 0.096623 17.4921 0.0585938C17.5277 0.0649554 17.5615 0.079519 17.5908 0.101187L18.5303 0.660229L25.0807 4.5256L28.1951 6.34648C28.33 6.42634 28.3144 6.40505 28.3144 6.55945V12.2031H28.2418C28.2124 12.2057 28.1829 12.2057 28.1535 12.2031H24.0011L24.0063 12.2297Z" fill="white"/>
<path d="M10.8067 22.8515C10.8067 22.9793 10.8067 27.8456 10.8067 27.9361C10.7652 27.9361 10.7392 27.9361 10.7133 27.9042L9.62846 27.26L5.95355 25.0877L1.80111 22.6119L0.129757 21.6216L0.015564 21.5471V15.8236C0.015564 15.8236 0.015564 15.7863 0.015564 15.765C0.0343158 15.7603 0.0539084 15.7603 0.0726603 15.765H4.15762C4.20483 15.7491 4.25574 15.7491 4.30296 15.765C4.32072 15.818 4.32605 15.8745 4.31853 15.9301V18.8371C4.31594 18.8796 4.31594 18.9223 4.31853 18.9648C4.31893 18.9806 4.32289 18.9959 4.3301 19.0098C4.33731 19.0237 4.34756 19.0356 4.36005 19.0447L4.43791 19.0873L9.39488 22.0263L10.7029 22.8036L10.8067 22.8515Z" fill="white"/>
<path d="M4.31855 12.2031C4.23031 12.2031 0.27511 12.2031 0.0986317 12.2031H0.0415354C0.0394118 12.1801 0.0394118 12.1569 0.0415354 12.1339C0.0389299 12.0984 0.0389299 12.0628 0.0415354 12.0274V6.59138C0.0415354 6.39439 0.0415356 6.43698 0.18168 6.34115L5.13346 3.40219L9.98662 0.489845L10.6925 0.0745568L10.7964 0.0159912C10.7999 0.0353464 10.7999 0.0552016 10.7964 0.0745568C10.7989 0.110002 10.7989 0.145596 10.7964 0.181041V4.97283C10.7964 5.15385 10.7963 5.1219 10.6562 5.21242L4.42755 8.89144C4.26664 8.98728 4.27702 8.95533 4.27702 9.15233V12.0753C4.30035 12.114 4.31457 12.1578 4.31855 12.2031Z" fill="white"/>
<path d="M71.4738 6.58069C71.2091 7.16635 70.9548 7.75202 70.6849 8.33768C70.6849 8.33768 70.6589 8.3856 70.6382 8.41222L70.5655 8.35897C70.2208 8.06471 69.8192 7.84877 69.3872 7.72539C69.1848 7.66456 68.9753 7.63231 68.7644 7.62956C68.4401 7.61704 68.1167 7.67323 67.8145 7.79461C67.596 7.88224 67.3988 8.01767 67.2366 8.19145C67.0743 8.36524 66.9509 8.57321 66.875 8.80088C66.7855 9.04641 66.7364 9.30551 66.7297 9.56757C66.7297 10.1 66.7297 10.6324 66.7297 11.1222C66.7145 11.1634 66.7145 11.2088 66.7297 11.25C66.7486 11.2531 66.7679 11.2531 66.7868 11.25H70.5395C70.5875 11.2398 70.6369 11.2398 70.6849 11.25V11.3299V13.1348C70.6956 13.1785 70.6956 13.2242 70.6849 13.2679C70.6479 13.2809 70.6077 13.2809 70.5707 13.2679H66.7297C66.7255 13.2961 66.7255 13.3248 66.7297 13.3531C66.7297 13.4063 66.7297 13.4596 66.7297 13.5128V22.2232C66.7323 22.2693 66.7323 22.3155 66.7297 22.3616C66.7297 22.4096 66.7297 22.4202 66.6674 22.4255H64.5912C64.545 22.4361 64.4972 22.4361 64.451 22.4255C64.4535 22.4061 64.4535 22.3864 64.451 22.367V13.3797C64.451 13.3371 64.451 13.3211 64.3939 13.3211H62.572C62.5256 13.3287 62.4783 13.3287 62.4319 13.3211C62.4319 13.3211 62.4319 13.2785 62.4319 13.2572C62.4293 13.2307 62.4293 13.2039 62.4319 13.1774V11.4204C62.4216 11.3767 62.4216 11.331 62.4319 11.2873C62.4672 11.2747 62.5056 11.2747 62.5409 11.2873H64.3939C64.4303 11.2873 64.4458 11.2873 64.451 11.2234V11.1116C64.451 10.5792 64.451 10.0467 64.451 9.51433C64.4577 8.92579 64.5795 8.34462 64.8092 7.80526C65.1558 6.96567 65.8129 6.30129 66.6363 5.95776C66.9682 5.81252 67.3172 5.71229 67.6744 5.6596C68.0663 5.60201 68.4632 5.58951 68.8578 5.62233C69.6755 5.65645 70.471 5.90581 71.1676 6.34642C71.2539 6.40191 71.3371 6.46235 71.4168 6.52745L71.4738 6.58069Z" fill="white"/>
<path d="M42.8997 20.051C42.8997 20.051 42.8997 20.0084 42.9309 19.9924C42.9776 19.7848 43.0191 19.5771 43.0658 19.3695C43.0811 19.3021 43.1019 19.2362 43.1281 19.1725L45.9466 12.2031L46.258 11.4204L46.3099 11.3086C46.3561 11.2984 46.4039 11.2984 46.4501 11.3086H48.7287H48.8066C48.8097 11.3495 48.8006 11.3903 48.7806 11.4258C48.6664 11.6973 48.547 11.9582 48.4329 12.2457C47.7408 13.8891 47.0487 15.5361 46.3566 17.1866C45.6646 18.8371 44.95 20.5373 44.2129 22.2871L44.1403 22.4469C44.0416 22.4469 41.7941 22.4469 41.6799 22.4469C41.6507 22.4123 41.6279 22.3726 41.6125 22.3297C41.3478 21.6962 41.0934 21.0626 40.8079 20.429L38.1763 14.205C37.7818 13.2786 37.3926 12.3469 36.9981 11.4204C36.9981 11.3885 36.9981 11.3512 36.9565 11.3086H37.0188H39.5518L39.6089 11.4364C39.9515 12.3149 40.2993 13.1934 40.647 14.0666L42.6713 19.1831C42.7144 19.2988 42.7474 19.4182 42.77 19.5399C42.8011 19.6889 42.8322 19.8433 42.8686 19.9924C42.8735 20.0145 42.8843 20.0348 42.8997 20.051Z" fill="white"/>
<path d="M73.3994 22.4202C73.3982 22.4007 73.3982 22.3812 73.3994 22.3617C73.3994 18.6844 73.3994 15.0036 73.3994 11.3193C73.3977 11.3069 73.3977 11.2943 73.3994 11.282H73.4617H75.6521C75.6537 11.305 75.6537 11.3282 75.6521 11.3512V22.2658C75.6547 22.3084 75.6547 22.351 75.6521 22.3936C75.6521 22.3936 75.6521 22.4309 75.6106 22.4362H73.3787L73.3994 22.4202Z" fill="white"/>
<path d="M15.9038 5.06331H15.8467H12.4002C12.3961 5.03685 12.3961 5.0099 12.4002 4.98345C12.3976 4.95156 12.3976 4.9195 12.4002 4.88761V0.181014C12.3874 0.126777 12.3874 0.0702002 12.4002 0.0159637C12.4209 0.013545 12.4418 0.013545 12.4625 0.0159637H15.7377C15.7906 0.00306093 15.8458 0.00306093 15.8986 0.0159637C15.9011 0.0371833 15.9011 0.058634 15.8986 0.0798536C15.9012 0.109969 15.9012 0.140249 15.8986 0.170365C15.8986 1.74633 15.8986 3.3223 15.8986 4.89826C15.9104 4.95247 15.9121 5.00844 15.9038 5.06331Z" fill="white"/>
</g>
<path d="M81.2 22C81.0533 22 80.94 21.96 80.86 21.88C80.78 21.7867 80.74 21.6733 80.74 21.54V8.48C80.74 8.33333 80.78 8.22 80.86 8.14C80.94 8.04667 81.0533 8 81.2 8H82.12C82.28 8 82.4 8.04 82.48 8.12C82.56 8.18667 82.6067 8.24 82.62 8.28L89.26 18.48V8.48C89.26 8.33333 89.3 8.22 89.38 8.14C89.46 8.04667 89.5733 8 89.72 8H90.68C90.8267 8 90.94 8.04667 91.02 8.14C91.1133 8.22 91.16 8.33333 91.16 8.48V21.52C91.16 21.6533 91.1133 21.7667 91.02 21.86C90.94 21.9533 90.8333 22 90.7 22H89.74C89.5933 22 89.48 21.96 89.4 21.88C89.3333 21.8 89.2867 21.7467 89.26 21.72L82.64 11.62V21.54C82.64 21.6733 82.5933 21.7867 82.5 21.88C82.42 21.96 82.3067 22 82.16 22H81.2ZM95.8667 22C95.7334 22 95.6201 21.96 95.5267 21.88C95.4467 21.7867 95.4067 21.6733 95.4067 21.54V13.2H93.7067C93.5734 13.2 93.4601 13.16 93.3667 13.08C93.2867 12.9867 93.2467 12.8733 93.2467 12.74V12.06C93.2467 11.9267 93.2867 11.82 93.3667 11.74C93.4601 11.6467 93.5734 11.6 93.7067 11.6H95.4067V10.6C95.4067 9.92 95.5201 9.32667 95.7467 8.82C95.9734 8.3 96.3334 7.9 96.8267 7.62C97.3334 7.34 98.0067 7.2 98.8467 7.2H100.047C100.18 7.2 100.287 7.24667 100.367 7.34C100.447 7.42 100.487 7.52667 100.487 7.66V8.34C100.487 8.47333 100.447 8.58667 100.367 8.68C100.287 8.76 100.18 8.8 100.047 8.8H98.8867C98.2601 8.8 97.8334 8.96667 97.6067 9.3C97.3801 9.62 97.2667 10.0867 97.2667 10.7V11.6H99.8467C99.9801 11.6 100.087 11.6467 100.167 11.74C100.247 11.82 100.287 11.9267 100.287 12.06V12.74C100.287 12.8733 100.247 12.9867 100.167 13.08C100.087 13.16 99.9801 13.2 99.8467 13.2H97.2667V21.54C97.2667 21.6733 97.2201 21.7867 97.1267 21.88C97.0467 21.96 96.9401 22 96.8067 22H95.8667ZM106.122 22C105.375 22 104.769 21.86 104.302 21.58C103.835 21.2867 103.495 20.88 103.282 20.36C103.069 19.8267 102.962 19.2 102.962 18.48V13.2H101.402C101.269 13.2 101.155 13.16 101.062 13.08C100.982 12.9867 100.942 12.8733 100.942 12.74V12.06C100.942 11.9267 100.982 11.82 101.062 11.74C101.155 11.6467 101.269 11.6 101.402 11.6H102.962V8.26C102.962 8.12667 103.002 8.02 103.082 7.94C103.175 7.84667 103.289 7.8 103.422 7.8H104.362C104.495 7.8 104.602 7.84667 104.682 7.94C104.775 8.02 104.822 8.12667 104.822 8.26V11.6H107.302C107.435 11.6 107.542 11.6467 107.622 11.74C107.715 11.82 107.762 11.9267 107.762 12.06V12.74C107.762 12.8733 107.715 12.9867 107.622 13.08C107.542 13.16 107.435 13.2 107.302 13.2H104.822V18.34C104.822 18.9667 104.929 19.46 105.142 19.82C105.355 20.18 105.735 20.36 106.282 20.36H107.502C107.635 20.36 107.742 20.4067 107.822 20.5C107.915 20.58 107.962 20.6867 107.962 20.82V21.54C107.962 21.6733 107.915 21.7867 107.822 21.88C107.742 21.96 107.635 22 107.502 22H106.122Z" fill="white"/>
<defs>
<clipPath id="clip0_104_1964">
<rect width="76" height="28" fill="white"/>
</clipPath>
</defs>
</svg>
